<ttFont>
          <CharString index="0">
            16 22.6666564941 15.3333282471 31.0000152588 14.6666717529 39.3333282471 16 42 8 33 0 24 rrcurveto
            -105 hlineto
            -2.66665649414 -50.6666717529 -1.66668701172 -28.6666564941 -0.666656494141 -6.66667175293 -4.66667175293 -34.6666717529 -8.66665649414 -30.9999847412 -12.6666717529 -27.3333435059 rrcurveto
            return
          </CharString>
          <CharString index="1">
            0 -24 8.66667175293 -20.3333282471 17.3333282471 -16.6666717529 17.3333435059 -16.6666717529 20.3333129883 -8.33332824707 23.3333435059 0 24 0 20.5 8.33332824707 17 16.6666717529 17 16.6666717529 8.5 20.3333282471 0 24 0 24 -8.66667175293 20.5 -17.3333282471 17 -17.3333282471 17 -20.3333435059 8.5 -23.3333282471 0 rrcurveto
            -23.3333435059 0 -20.3333129883 -8.5 -17.3333435059 -17 -17.3333282471 -17 -8.66667175293 -20.5 0 -24 rrcurveto
            return
          </CharString>
          <CharString index="2">
            43.3333435059 -61.3333282471 66.3333282471 -30.6666717529 89.3333282471 0 57.3333435059 0 48 15.3333282471 38.6666564941 30.6666717529 44.6666564941 36 22.3333435059 52.3333435059 0 68.6666564941 0 70 -23.6666564941 52.6666564941 -47.3333435059 35.3333435059 -14.6666564941 10.6666564941 -43.6666870117 20 -72.6666564941 29.3333435059 -46.6666717529 18.6666564941 -23.3333282471 24.6666870117 0 30.6666564941 rrcurveto
            0 34.6666870117 8 24 16 13.3333129883 12.6666717529 10.6666870117 20 5.33331298828 27.3333282471 0 40.6666564941 0 43 -21.3333129883 45.3333435059 -42.6666870117 rrcurveto
            40 84 rlineto
            -56 47.3333129883 -62.6666564941 23.6666870117 -69.3333435059 0 -43.3333282471 0 -40 -14.6666870117 -36.6666717529 -29.3333129883 -42.6666564941 -34.6666870117 -21.6666717529 -44.6666259766 -0.66667175293 -54.6666870117 -0.66667175293 -68.6666564941 23.6666717529 -51 48 -33.3333435059 9.33334350586 -6.66665649414 44.3333282471 -20 79.3333282471 -33.3333435059 48.6666564941 -20 24.3333435059 -27.3333282471 0 -34.6666717529 rrcurveto
            0.666656494141 -68 -34.6666564941 -34 -70 0 -51.3333282471 0 -45.6666717529 23.3333435059 -40 46.6666564941 rrcurveto
            return
          </CharString>
          <CharString index="3">
            -63 -72 -214 83 62 78 rlineto
            return
          </CharString>
          <CharString index="4">
            -1 -109 rlineto
            -26 -32 -33.3333282471 -16 -40.6666717529 0 -16 0 -14 7.16665649414 -12 14.3333435059 -12 14.3333435059 -6 16.5 0 18.6666564941 0 29.3333282471 8 19.6666717529 16 10 10.6666717529 7.33332824707 21.3333282471 6.33334350586 32 5.33332824707 28.6666717529 5.33332824707 24.3333282471 2.66667175293 20 0 rrcurveto
            return
          </CharString>
          <CharString index="5">
            4.66665649414 -17.3333282471 11.3333435059 -15.6666717529 18 -14 16 -12 13 -6 10 0 24.6666564941 0 32.6666870117 11 40.6666564941 22 rrcurveto
            -11 64 rlineto
            -6.66665649414 -6.66665649414 -14 -3.33334350586 -21.3333435059 0 -5.33334350586 0 -5.16665649414 2.66665649414 -5 5.33334350586 -5 5.33334350586 -2.5 4.66665649414 0 4 rrcurveto
            251 vlineto
            0 47.3333435059 -16.1666564941 39 -32.3333435059 30.6666564941 -32.3333435059 30.6666564941 -39.8333129883 15.3333435059 -47.3333435059 0 -32 0 -34 -8.66665649414 -36 -17.3333435059 -41.3333435059 -19.3333435059 -29.6666564941 -24.6666564941 -18 -30 rrcurveto
            43 -61 rlineto
            38 45.3333435059 49.3333282471 22.6666564941 60.6666717529 0 16 0 14 -6.5 12 -13 12 -13 6 -13.8333435059 0 -14.6666564941 rrcurveto
            -52 vlineto
            -25.3333435059 -2.66665649414 -28.3333282471 -4.33334350586 -31.3333282471 -6 -60.6666717529 -12 -40.6666717529 -13 -20.6666564941 -14 -32 -23.3333282471 -16 -39.3333435059 0 -55.3333282471 0 -46.6666564941 14.6666717529 -37.6666717529 29.3333282471 -28.6666717529 26.6666564941 -26 33.3333435059 -13 40 0 22 0 22 7.33332824707 22 14.6666717529 rrcurveto
            10.6666564941 7.33332824707 19.3333435059 16 28 24.6666717529 rrcurveto
            return
          </CharString>
          <CharString index="6">
            -76.6666717529 0.666656494141 -39 56.6666870117 -1.33332824707 112.666656494 rrcurveto
            296 75 hlineto
            0 61.3333435059 -18.6666564941 49 -37.3333435059 36.6666564941 -34 33.3333435059 -42 16.6666564941 -50 0 -72.6666717529 0 -57.6666564941 -25.6666564941 -42.6666717529 -51.3333435059 -40 -48.6666564941 -20 -62 0 -75.3333435059 0 -54 12.6666717529 -50.3333282471 25.3333282471 -46.6666717529 40 -72 63.6666717529 -36 87.3333282471 0 rrcurveto
            37.3333435059 0 30.3333129883 5 23.3333435059 10 26 11.3333282471 30.3333435059 22.3333435059 34.6666564941 33.3333282471 rrcurveto
            -45 61 rlineto
            -43.3333435059 -42.6666564941 -43.3333129883 -21 -43.3333435059 0.666656494141 rrcurveto
            return
          </CharString>
          <CharString index="7">
            -180 hlineto
            6 35.3333435059 13.3333282471 27.6666564941 20.6666717529 20 17.3333282471 17.3333435059 20 8.66665649414 22.6666717529 0 56.6666564941 0 26.6666870117 -36.3333435059 -3.33334350586 -72.6666564941 rrcurveto
            return
          </CharString>
          <CharString index="8">
            -495 107 495 vlineto
            return
          </CharString>
          <CharString index="9">
            -320 107 332 vlineto
            0 52 -16 43.3333435059 -32 34.6666564941 -30 32.6666564941 -36 16.3333435059 -42 0 -41.3333282471 0 -41 -34.6666564941 -40.6666717529 -69.3333435059 rrcurveto
            89 -107 -496 107 303 vlineto
            0 22 13 25.1666564941 26 28.3333435059 26 28.3333435059 25.3333435059 14.1666564941 24.6666564941 0 16 0 13 -8 10 -16 12 -18 6 -25.6666564941 0 -33.3333435059 rrcurveto
            return
          </CharString>
          <CharString index="10">
            0 -61.3333282471 13.3333282471 -53.3333435059 26.6666717529 -45.3333282471 40.6666564941 -68.6666717529 65.3333435059 -34.3333282471 90 0 82.6666564941 0 62.3333435059 34 42 68 30 48.6666717529 15 53.6666564941 0 58.6666717529 0 86 -26 66.6666564941 -52 47.3333435059 -43.3333435059 40 -51 20 -58.6666564941 0 rrcurveto
            -59.3333282471 0 -52 -20 -44.6666717529 -40 -54 -48 -27 -66.6666564941 0 -85.3333435059 rrcurveto
            return
          </CharString>
          <CharString index="11">
            0 50.6666564941 10 42.6666870117 20 34.6666564941 22.6666717529 39.3333435059 31.6666564941 19.6666564941 40.6666717529 0 35.3333435059 0 28 -19.3333435059 20.6666564941 -38.6666564941 18 -34 9 -41.3333435059 0 -48.6666564941 0 -50 -10 -42 -20 -34 -22 -38.6666564941 -30 -19.3333435059 -38 0 rrcurveto
            -36.6666717529 0 -29 19 -21.3333282471 38 -19.3333282471 33.3333282471 -9.66667175293 40.6666717529 0 48 rrcurveto
            return
          </CharString>
          <CharString index="12">
            40.6666564941 -53.3333282471 56.3333435059 -26.6666717529 72 0 50.6666564941 0 42.3333435059 14.3333282471 34 28.6666717529 38 32.6666717529 19 45.3333282471 0 58 0 68.6666717529 -48 48.6666717529 -96 28.6666564941 -22 6.66665649414 -22.6666717529 8 -23.3333282471 9.33334350586 -14.6666717529 6 -7.33332824707 12 0 18 rrcurveto
            0 14.6666564941 5.83332824707 13 11.6666717529 11.3333435059 11.6666717529 11.3333435059 16.5 5.66665649414 21.3333282471 0 32 0 35.3333435059 -13.6666564941 38.6666564941 -27.3333435059 rrcurveto
            39 74 rlineto
            -56.6666564941 36 -50.6666870117 18 -44.6666564941 0 rrcurveto
            -2 hlineto
            -44 0 -37 -13 -30 -26 -35.3333435059 -30 -17.6666564941 -42 0 -54 0 -38 11.3333435059 -30 22.6666564941 -22 17.3333435059 -16.6666717529 27.6666564941 -13.6666564941 38 -10.6666717529 76 -22 38 -27.6666717529 0 -33.3333282471 0 -18.6666564941 -6.5 -15.3333435059 -13 -12 rrcurveto
            -13 -12 -17.1666717529 -6 -21.3333282471 0 -42.6666717529 0 -39 23.3333435059 -35.3333282471 46.6666564941 rrcurveto
            return
          </CharString>
          <CharString index="13">
            97 495 -107 -306 hlineto
            0 -17.3333282471 -13 -22.6666717529 -26 -28 -28 -30.6666564941 -26 -15.3333435059 -24 0 rrcurveto
            -34.6666717529 -17.3333282471 31.3333435059 62.6666564941 hvcurveto
            326 -107 -329 vlineto
            0 -54.6666564941 15.3333435059 -45 30.6666564941 -35.3333435059 29.3333282471 -32.6666717529 35.3333435059 -16.3333282471 41.3333282471 0 36.6666717529 0 41.3333282471 29.6666717529 46 59.3333282471 4.66665649414 -29.3333282471 3.33334350586 -23.6666717529 2 -18 rrcurveto
            return
          </CharString>
          <CharString index="14">
            36.6666717529 0 32.6666564941 13 28.6666717529 26 23.3333282471 21.3333282471 17.6666717529 26.3333282471 12 31.3333435059 rrcurveto
            199 554 -101 25 -108 -364 -118 366 -114 -30 182 -441 rlineto
            -23.3333282471 -86.6666717529 -28.6666717529 -42.9999847412 -34 0.666656494141 -22 0 -23.3333435059 6.66665649414 -24.6666564941 13.3333435059 rrcurveto
            -32 -95 rlineto
            46 -16 32.3333435059 -8 18.6666564941 0 rrcurveto
            return
          </CharString>
          <CharString index="15">
            -77 386 92 -242 vlineto
            19.3333282471 26 14 20 8.66667175293 14 rrcurveto
            188 262 0 80 -365 0 0 -86 233 0 rlineto
            -19.3333435059 -25.3333435059 -13 -17.6666564941 -6.66665649414 -10 rrcurveto
            return
          </CharString>
          <CharString index="16">
            -138 -88 -142 87 0 -97 143 -106 137 106 rlineto
            return
          </CharString>
          <CharString index="17">
            0 -91.3333282471 32.3333435059 -78 64.6666564941 -64.6666717529 64.6666717529 -64.6666717529 77.9999847412 -32.3333282471 91.3333435059 0 91.3333435059 0 77.9999694824 32.3333282471 64.6666870117 64.6666717529 64.6666870117 64.6666717529 32.3333129883 78 0 91.3333282471 0 91.3333435059 -32.3333129883 78 -64.6666870117 64.6666564941 -64.6666870117 64.6666870117 -77.9999694824 32.3333129883 -91.3333435059 0 rrcurveto
            -91.3333435059 0 -77.9999847412 -32.3333129883 -64.6666717529 -64.6666870117 -64.6666564941 -64.6666564941 -32.3333435059 -78 0 -91.3333435059 rrcurveto
            return
          </CharString>
          <CharString index="18">
            0 271 170 350 -106 33 -121 -279 -123 279 -110 -33 171 -350 0 -271 rlineto
            return
          </CharString>
          <CharString index="19">
            0 -18.6666870117 5.33334350586 -16 10.6666564941 -13.3333129883 13.3333435059 -16 18 -8 22.6666564941 0 22 0 17.6666564941 8 13.3333435059 16 11.3333435059 14 5.66665649414 16 0 18 0 17.3333129883 -5.66665649414 15.6666870117 -11.3333435059 14 -14 16.6666870117 -17.6666564941 8.33331298828 -21.3333435059 0 rrcurveto
            -22.6666564941 0 -18 -8.33331298828 -13.3333435059 -16.6666870117 -10.6666564941 -13.3333129883 -5.33334350586 -15.6666870117 0 -18 rrcurveto
            return
          </CharString>
          <CharString index="20">
            56 -180 116 19 -211 647 -102 0 -207 -652 113 -14 54 180 rlineto
            return
          </CharString>
          <CharString index="21">
            64 222 63 -222 rlineto
            return
          </CharString>
          <CharString index="22">
            48 59 -210 96 -47 -65 rlineto
            return
          </CharString>
          <CharString index="23">
            63 -72 214 83 -62 78 rlineto
            return
          </CharString>
          <CharString index="24">
            31.3333435059 -20 25.3333129883 -10 19.3333435059 0 10 0 14.1666564941 3.66668701172 18.3333435059 7.33331298828 18.3333435059 7.33331298828 14.5 9 10.6666564941 10.6666870117 rrcurveto
            -37 76 rlineto
            -25.3333435059 -20.6666870117 -17 -10.3333129883 -8.66665649414 0 -6.66665649414 0 -16.3333435059 9 -26 18 -26 18 -23 8.66668701172 -20 -0.666687011719 -44 -1.33331298828 -35 -17.3333740234 -26 -33.3333129883 rrcurveto
            39 -78 rlineto
            26.6666717529 31.3333129883 22 15.6666870117 17.3333282471 0 5.33332824707 0 14.6666717529 -7.66668701172 24 -15.3333129883 rrcurveto
            return
          </CharString>
          <CharString index="25">
            22 11 -14.3333129883 -28.6666870117 -29.3333129883 -11 -14.6666870117 -22 -22 -11 14.6666870117 29.3333129883 28.6666870117 11 14.3333129883 22 hvcurveto
            return
          </CharString>
          <CharString index="26">
            144 242 105 -359 -640 357 110 vlineto
            -240 -1 0 184 226 -1 0 99 rlineto
            return
          </CharString>
          <CharString index="27">
            138 78 142 -77 0 87 -142 106 -138 -106 rlineto
            return
          </CharString>
          <CharString index="28">
            0 -18.6666870117 5.66665649414 -16 11.3333435059 -13.3333129883 12.6666564941 -16 17.6666870117 -8 22.6666564941 0 22 0 17.6666564941 8 13.3333435059 16 11.3333435059 14 5.66665649414 16 0 18 0 17.3333129883 -5.66665649414 15.6666870117 -11.3333435059 14 -13.3333435059 16.6666870117 -17.6666564941 8.33331298828 -22 0 rrcurveto
            -22.6666564941 0 -17.6666870117 -8.33331298828 -12.6666564941 -16.6666870117 -11.3333435059 -14 -5.66665649414 -15.6666870117 0 -17.3333129883 rrcurveto
            return
          </CharString>
          <CharString index="29">
            -642 129 642 vlineto
            return
          </CharString>
          <CharString index="30">
            0 -18.6666870117 5.66667175293 -16 11.3333282471 -13.3333129883 12.6666717529 -16 17.6666564941 -8 22.6666717529 0 22 0 17.6666564941 8 13.3333435059 16 11.3333435059 14 5.66665649414 16 0 18 0 17.3333129883 -5.66665649414 15.6666870117 -11.3333435059 14 -13.3333435059 16.6666870117 -17.6666564941 8.33331298828 -22 0 rrcurveto
            -22.6666717529 0 -17.6666564941 -8.33331298828 -12.6666717529 -16.6666870117 -11.3333282471 -14 -5.66667175293 -15.6666870117 0 -17.3333129883 rrcurveto
            return
          </CharString>
          <CharString index="31">
            31.3333435059 -20 25.3333129883 -10 19.3333435059 0 10 0 14.1666564941 3.66668701172 18.3333435059 7.33331298828 18.3333435059 7.33331298828 14.5 9 10.6666564941 10.6666870117 rrcurveto
            -37 76 rlineto
            -25.3333435059 -20.6666870117 -17 -10.3333129883 -8.66665649414 0 -6.66665649414 0 -16.3333435059 9 -26 18 -26 18 -23 8.66668701172 -20 -0.666687011719 -44 -1.33331298828 -35 -17.3333740234 -26 -33.3333129883 rrcurveto
            39 -78 rlineto
            26.6666717529 31.3333129883 22 15.6666870117 17.3333282471 0 5.33334350586 0 14.6666564941 -7.66668701172 24 -15.3333129883 rrcurveto
            return
          </CharString>
          <CharString index="32">
            0 -106 27.6666564941 -83.6666717529 55.3333435059 -61.3333282471 52 -58 68 -29 84 0 84.6666564941 0 69.3333435059 29 54 58 57.3333129883 61.3333282471 28.6666870117 83.6666717529 0 106 0 93.3333435059 -26.5 77.3333129883 -53 61.3333435059 -53 61.3333129883 -69.1666564941 30.6666870117 -85.3333435059 0 rrcurveto
            -85.3333282471 0 -70.3333435059 -30.6666870117 -55.3333282471 -61.3333129883 -55.3333435059 -61.3333435059 -27.6666564941 -77.3333129883 0 -93.3333435059 rrcurveto
            return
          </CharString>
          <CharString index="33">
            0 64 17 55.1666564941 34 46.3333435059 34 46.3333129883 42 23.1666870117 50 0 50 0 41.6666564941 -23.1666870117 33.3333435059 -46.3333129883 33.3333435059 -46.3333435059 16.6666564941 -55.5 0 -64.6666564941 0 -62 -17.8333435059 -53.5 -35.6666564941 -45 -35.6666564941 -45 -42.1666870117 -22.5 -48.6666564941 0 rrcurveto
            -48 0 -40.6666717529 22.5 -33.3333282471 45 -33.3333282471 45 -16.6666717529 53.8333282471 0 62.6666717529 rrcurveto
            return
          </CharString>
          <CharString index="34">
            0 -18.6666870117 5.66667175293 -16 11.3333282471 -13.3333129883 12.6666717529 -16 17.6666564941 -8 22.6666717529 0 22 0 17.6666564941 8 13.3333435059 16 11.3333435059 14 5.66665649414 16 0 18 0 17.3333129883 -5.66665649414 15.6666870117 -11.3333435059 14 -13.3333435059 16.6666870117 -17.6666564941 8.33331298828 -22 0 rrcurveto
            -22.6666717529 0 -18 -8.33331298828 -13.3333282471 -16.6666870117 -10.6666717529 -13.3333129883 -5.33332824707 -15.6666870117 0 -18 rrcurveto
            return
          </CharString>
          <CharString index="35">
            62 0 52 19.3333282471 42 38.6666717529 49.3333435059 45.3333435059 24.6666564941 64.6666564941 0 84 rrcurveto
            405 -119 -405 vlineto
            0 -52.6666717529 -11.6666564941 -40 -23.3333435059 -27.3333282471 -20 -22.6666564941 -24.6666564941 -11.3333435059 -29.3333435059 0 rrcurveto
            -65.3333282471 -32.6666717529 51.3333282471 102.666671753 hvcurveto
            405 -119 -405 vlineto
            0 -84.6666717529 22 -64.3333282471 44 -44 38 -39.3333282471 49.6666717529 -19.6666717529 61.3333282471 0 rrcurveto
            return
          </CharString>
          <CharString index="36">
            30 -20 25.3333435059 -10 20.6666564941 0 10 0 14.1666564941 3.66668701172 18.3333435059 7.33331298828 18.3333435059 7.33331298828 14.5 9 10.6666564941 10.6666870117 rrcurveto
            -38 76 rlineto
            -25.3333435059 -20.6666870117 -16.6666564941 -10.3333129883 -8 0 -6.66665649414 0 -16.5 9 -26.3333435059 18 -26.3333282471 18 -23.1666717529 8.66668701172 -20 -0.666687011719 -44 -1.33331298828 -35 -17.3333740234 -26 -33.3333129883 rrcurveto
            40 -78 rlineto
            26.6666717529 31.3333129883 22 15.6666870117 17.3333282471 0 6 0 14.6666717529 -7.66668701172 23.3333282471 -15.3333129883 rrcurveto
            return
          </CharString>
          <CharString index="37">
            33 -72 214 83 -32 78 rlineto
            return
          </CharString>
          <CharString index="38">
            0 -18.6666870117 5.66665649414 -16 11.3333435059 -13.3333129883 12.6666564941 -16 17.6666870117 -8 22.6666564941 0 22 0 17.6666564941 8 13.3333435059 16 11.3333435059 14 5.66665649414 16 0 18 0 17.3333129883 -5.66665649414 15.6666870117 -11.3333435059 14 -13.3333435059 16.6666870117 -17.6666564941 8.33331298828 -22 0 rrcurveto
            -22.6666564941 0 -18 -8.33331298828 -13.3333435059 -16.6666870117 -10.6666564941 -13.3333129883 -5.33334350586 -15.6666870117 0 -18 rrcurveto
            return
          </CharString>
        <CharString name=".notdef">
          63 hmoveto
          375 750 -375 hlineto
          62 -687 rmoveto
          625 250 -625 vlineto
          endchar
        </CharString>
        <CharString name=".null">
          -475 endchar
        </CharString>
        <CharString name="A">
          93 380 148 rmoveto
          47 -160 116 19 -210 647 -102 0 -208 -652 104 -14 46 160 rlineto
          27 93 rmoveto
          78 260 75 -260 rlineto
          endchar
        </CharString>
        <CharString name="AE">
          387 227 271 rmoveto
          61 222 63 -222 rlineto
          214 120 rmoveto
          154 257 96 -380 -331 vlineto
          -101 344 -104 0 -214 -652 117 -14 55 180 186 0 53 -169 385 0 0 100 -254 0 0 193 240 0 0 99 rlineto
          endchar
        </CharString>
        <CharString name="Aacute">
          93 377 168 rmoveto
          -87 callsubr
          27 93 rmoveto
          -86 callsubr
          -204 485 rmoveto
          -84 callsubr
          endchar
        </CharString>
        <CharString name="Acircumflex">
          93 377 168 rmoveto
          -87 callsubr
          27 93 rmoveto
          -86 callsubr
          -204 400 rmoveto
          138 88 141 -87 0 97 -142 106 -137 -106 rlineto
          endchar
        </CharString>
        <CharString name="Adieresis">
          105 377 168 rmoveto
          -87 callsubr
          27 93 rmoveto
          -86 callsubr
          -24 497 rmoveto
          -88 callsubr
          -210 hmoveto
          0 -18.6666870117 5.66665649414 -16 11.3333435059 -13.3333129883 12.6666717529 -16 17.6666564941 -8 22.6666717529 0 22 0 17.6666717529 8 13.3333282471 16 11.3333282471 14 5.66667175293 16 0 18 0 17.3333129883 -5.66667175293 15.6666870117 -11.3333282471 14 -13.3333282471 16.6666870117 -17.6666717529 8.33331298828 -22 0 rrcurveto
          -22.6666717529 0 -18 -8.33331298828 -13.3333282471 -16.6666870117 -10.6666564941 -13.3333129883 -5.33334350586 -15.6666870117 0 -18 rrcurveto
          endchar
        </CharString>
        <CharString name="Agrave">
          105 377 168 rmoveto
          -87 callsubr
          27 93 rmoveto
          -86 callsubr
          15 425 rmoveto
          -85 callsubr
          endchar
        </CharString>
        <CharString name="Aring">
          105 377 168 rmoveto
          -87 callsubr
          27 93 rmoveto
          -86 callsubr
          -57 425 rmoveto
          26.6666564941 0 21.8333435059 8.16668701172 17 16.3333129883 17 16.3333129883 8.5 20.8333740234 0 25.3333129883 0 24.6666870117 -8.5 20.5 -17 16.3333129883 -17 16.3333129883 -21.8333435059 8.16668701172 -26.6666564941 0 -26.6666564941 0 -21.8333435059 -8.16668701172 -17 -16.3333129883 -17 -16.3333129883 -8.5 -20.5 0 -24.6666870117 rrcurveto
          0 -25.3333129883 8.5 -20.8333740234 17 -16.3333129883 17 -16.3333129883 21.8333435059 -8.16668701172 26.6666564941 0 rrcurveto
          130 vmoveto
          -82 callsubr
          endchar
        </CharString>
        <CharString name="Atilde">
          105 377 168 rmoveto
          -87 callsubr
          27 93 rmoveto
          -86 callsubr
          -71 458 rmoveto
          -83 callsubr
          endchar
        </CharString>
        <CharString name="B">
          26 63 2 rmoveto
          12.6666564941 0 23.1666870117 -0.66667175293 33.6666564941 -1.33332824707 33.6666717529 -1.33332824707 25.8333282471 -0.66667175293 18 0 79.3333435059 0 59.6666564941 11 40 22 54.6666564941 30.6666717529 27.3333435059 53.6666717529 0 76.6666564941 0 40.6666717529 -13.1666564941 35.9999847412 -26.3333435059 31.3333435059 -26.3333435059 31.3333435059 -30.5 17 -34.6666564941 2.66665649414 rrcurveto
          26.6666564941 14 21.6666870117 18.8333435059 16.6666564941 23.6666564941 16.6666564941 23.6666564941 8.33334350586 24.8333435059 0 26 0 52 -15.5 40.1666870117 -31 28.3333129883 -31 28.3333129883 -42.1666564941 14.1666870117 -53.3333435059 0 -24.6666717529 0 -33.3333282471 -0.666687011719 -42 -1.33331298828 -57.3333435059 -1.33331298828 -31.3333129883 -0.666687011719 -5.33334350586 0 rrcurveto
          118 -72 rmoveto
          24 1.33331298828 19 0.666687011719 14 0 54.6666564941 0 27.6666870117 -32.6666870117 0.666656494141 -65.3333129883 0 -26 -8 -21.6666564941 -16 -17.3333435059 -18 -18.6666564941 -24 -9.33334350586 -30 0 rrcurveto
          -44 hlineto
          -76 vmoveto
          65 hlineto
          34 0 27.6666564941 -12 21.3333435059 -24 18.6666564941 -22 9.33334350586 -25 0 -28 0 -34 -9 -26.6666717529 -18 -19.3333282471 -18.6666564941 -21.3333435059 -27.3333435059 -10.6666564941 -36 0 rrcurveto
          -67 hlineto
          endchar
        </CharString>
        <CharString name="C">
          82 31 329 rmoveto
          0 -92 22 -77 44 -62 50 -70.6666717529 70.3333282471 -35.3333282471 90.6666717529 0 38 0 35 6.33332824707 32 12.6666717529 25.3333435059 10 34.6666564941 19.3333282471 44 28.6666717529 rrcurveto
          -47 78 rlineto
          -35.3333435059 -20 -25.6666564941 -13 -16 -6 -21.3333435059 -8 -22.3333129883 -4 -23.3333435059 0 -43.3333435059 0 -36.9999847412 20.6666564941 -30.6666717529 41.3333435059 -32.6666717529 43.3333282471 -16.3333282471 53.3333435059 0 63.3333282471 0 59.3333435059 12.3333282471 53.6666564941 24.6666717529 48 30.6666717529 60 41.9999847412 30 53.3333435059 0 rrcurveto
          25.3333435059 0 24.6666564941 -5.66668701172 24 -11.3333129883 1.33334350586 -1.33331298828 21.6666564941 -13 42 -24.6666870117 rrcurveto
          42 78 rlineto
          -74.6666564941 46 -65.6666870117 23 -56.6666564941 0 -89.3333282471 0 -71 -35.6666870117 -52.6666717529 -71.3333129883 -46 -62.6666564941 -23 -74.6666870117 0 -86.6666564941 rrcurveto
          endchar
        </CharString>
        <CharString name="Ccedilla">
          95 348 -219 rmoveto
          30.6666564941 0 23.6666870117 8.66667175293 16.6666564941 17.3333282471 16.6666564941 17.3333282471 8.33334350586 20.3333435059 0 23.3333282471 0 23.3333435059 -7.33334350586 20 -14.6666564941 16.6666564941 -17.3333435059 19.3333282471 -22.6666564941 9.66667175293 -28 0 -10.6666564941 0 -8.33334350586 -1.33332824707 -6 -2.66667175293 rrcurveto
          3 39 rlineto
          32 1.33332824707 30 6 28 10.6666717529 21.3333435059 7.33332824707 33.3333129883 16 45.3333435059 24.6666717529 rrcurveto
          -55 94 rlineto
          -67.3333435059 -38 -51.6666564941 -19 -36 0 -42.6666564941 0 -36.6666717529 21.1666564941 -30.6666717529 42.3333435059 -30.6666717529 42.3333282471 -15.3333282471 53.1666717529 0 64 0 58 12.3333282471 52 24.6666717529 46 30.6666717529 56.6666870117 42.3333282471 28.3333129883 54 0 21.3333435059 0 25 -8.66668701172 28.6666564941 -17.3333129883 rrcurveto
          68 -45 51 109 rlineto
          -72 42.6666870117 -66.3333435059 21 -60.6666564941 -0.666687011719 -90 -0.666687011719 -70.3333282471 -36 -50.6666717529 -71.3333129883 -44.6666717529 -62 -22.3333282471 -74.3333435059 0 -86.6666564941 0 -84.6666717529 19 -72.3333282471 38 -60 42.6666717529 -68.6666717529 60.3333282471 -39.3333282471 78 -10 rrcurveto
          -5 -84 46 -21 rlineto
          14 10 11.6666564941 5 9.33334350586 0 rrcurveto
          22 11 -13 -26 -22.6666717529 -11.6666564941 -11.3333282471 -23.3333435059 hvcurveto
          -15.3333435059 0 -17 10.6666717529 -18.6666564941 21.3333282471 rrcurveto
          -37 -34 rlineto
          15.3333435059 -32 29 -16 42.6666564941 0 rrcurveto
          endchar
        </CharString>
        <CharString name="D">
          90 63 2 rmoveto
          27.3333435059 0 29.3333129883 -0.66667175293 31.3333435059 -1.33332824707 31.3333282471 -1.33332824707 23.6666717529 -0.66667175293 16 0 102.666656494 0 78 29.3333282471 53.3333435059 58.6666717529 52 56 25.6666870117 79 -0.666687011719 102 -1.33331298828 216 -102.333343506 108 -203.333343506 0 -55.3333282471 0 -54.3333282471 -1.33331298828 -53.3333435059 -2.66668701172 rrcurveto
          171 -74 rmoveto
          116 58 -85.3333435059 -170.666656494 hvcurveto
          0 -58.6666717529 -14.3333435059 -51 -28.6666564941 -43.3333282471 -32 -48.6666564941 -41.6666564941 -24.3333435059 -51.3333435059 0 rrcurveto
          -55 481 hlineto
          7.33332824707 0 8.66667175293 0.333312988281 10 0.666687011719 rrcurveto
          endchar
        </CharString>
        <CharString name="Delta">
          214 320 657 rmoveto
          -243 -657 572 0 -223 657 rlineto
          -191 -567 rmoveto
          137 400 120 -400 rlineto
          endchar
        </CharString>
        <CharString name="E">
          -13 179 391 rmoveto
          164 243 85 -359 -640 356 89 -240 214 vlineto
          227 -1 0 89 rlineto
          endchar
        </CharString>
        <CharString name="Eacute">
          -6 185 391 rmoveto
          -81 callsubr
          -295 365 rmoveto
          62 -72 214 83 -62 78 rlineto
          endchar
        </CharString>
        <CharString name="Ecircumflex">
          14 185 391 rmoveto
          -81 callsubr
          -286 290 rmoveto
          -80 callsubr
          endchar
        </CharString>
        <CharString name="Edieresis">
          14 185 391 rmoveto
          -81 callsubr
          -116 367 rmoveto
          -79 callsubr
          -209 hmoveto
          0 -18.6666870117 5.33334350586 -16 10.6666564941 -13.3333129883 13.3333435059 -16 17.9999847412 -8 22.6666717529 0 22 0 17.3333282471 8 12.6666717529 16 11.3333282471 14 5.66667175293 16 0 18 0 17.3333129883 -5.66667175293 15.6666870117 -11.3333282471 14 -13.3333282471 16.6666870117 -17.3333435059 8.33331298828 -21.3333282471 0 rrcurveto
          -22.6666717529 0 -17.9999847412 -8.33331298828 -13.3333435059 -16.6666870117 -10.6666564941 -13.3333129883 -5.33334350586 -15.6666870117 0 -18 rrcurveto
          endchar
        </CharString>
        <CharString name="Egrave">
          14 185 391 rmoveto
          -81 callsubr
          -77 295 rmoveto
          49 59 -211 96 -46 -65 rlineto
          endchar
        </CharString>
        <CharString name="Eth">
          90 242 353 rmoveto
          -63 195 hlineto
          7.33332824707 0 10.3333435059 0.333312988281 13.3333282471 0.666687011719 rrcurveto
          28 hlineto
          61.3333435059 0 44.3333129883 -21 27.3333435059 -42 24 -38 12 -57.6666564941 0 -77.3333435059 0 -57.3333282471 -13.3333435059 -47.6666717529 -26.6666564941 -38 -30 -42 -41.3333435059 -21 -52.6666564941 0 rrcurveto
          -64 144 63 hlineto
          -183 102 rmoveto
          -53 -102 53 -249 hlineto
          27.3333435059 0 29.3333129883 -0.66667175293 31.3333435059 -1.33332824707 31.3333282471 -1.33332824707 24 -0.66667175293 16.6666717529 0 103.333343506 0 78.6666564941 29.3333282471 54 58.6666717529 52.6666564941 56 26.0000305176 79 -0.666687011719 102 -0.666687011719 113.333343506 -26.9999694824 82.9999694824 -53.3333435059 52.6666870117 -51.3333435059 50 -79.6666564941 25 -108 0 rrcurveto
          -48.6666717529 0 -51.3333282471 -1.33331298828 -54 -2.66668701172 rrcurveto
          endchar
        </CharString>
        <CharString name="F">
          -12 179 391 rmoveto
          164 244 85 -360 -640 116 302 229 89 vlineto
          endchar
        </CharString>
        <CharString name="G">
          107 302 -6 rmoveto
          42.6666564941 0 37.6666870117 6 32.6666564941 12 26 8.66667175293 34.6666564941 17.6666564941 43.3333435059 26.6666717529 rrcurveto
          326 -250 -87 131 -196 vlineto
          -22 -10.6666564941 -31.3333435059 -5.33334350586 -40.6666564941 0 -40 0 -33.6666717529 22 -27.3333282471 44 -27.3333282471 44 -13.6666717529 53.3333282471 0 62.6666717529 0 56.6666564941 12.3333282471 53.3333435059 24.6666717529 50 30 60.6666870117 40 30.3333129883 50 0 44.6666564941 0 49 -18.3333129883 53.3333435059 -36.6666870117 rrcurveto
          41 76 rlineto
          -26 21.3333129883 -35.3333435059 17.6666870117 -44.6666564941 14 -38.6666564941 11.3333129883 -34.6666870117 5.66668701172 -30.6666564941 0 -86 0 -68.3333282471 -39 -50.6666717529 -78 -42.6666717529 -66 -21 -73.3333435059 0.66667175293 -80.6666564941 0.66667175293 -88 22.3333282471 -74.6666717529 44 -61.3333282471 50 -70 68 -35 86 0 rrcurveto
          endchar
        </CharString>
        <CharString name="H">
          107 401 302 rmoveto
          -302 118 640 -118 -249 -219 249 -119 -640 119 302 vlineto
          endchar
        </CharString>
        <CharString name="I">
          -230 63 641 rmoveto
          -641 119 641 vlineto
          endchar
        </CharString>
        <CharString name="Iacute">
          -260 48 642 rmoveto
          -78 callsubr
          -198 104 rmoveto
          -84 callsubr
          endchar
        </CharString>
        <CharString name="Icircumflex">
          -260 42 642 rmoveto
          -78 callsubr
          -202 39 rmoveto
          -80 callsubr
          endchar
        </CharString>
        <CharString name="Idieresis">
          -260 48 642 rmoveto
          -78 callsubr
          -29 106 rmoveto
          -77 callsubr
          -209 hmoveto
          0 -18.6666870117 5.33332824707 -16 10.6666717529 -13.3333129883 13.3333282471 -16 18 -8 22.6666717529 0 22 0 17.3333282471 8 12.6666717529 16 11.3333435059 14 5.66665649414 16 0 18 0 17.3333129883 -5.66665649414 15.6666870117 -11.3333435059 14 -13.3333282471 16.6666870117 -17.3333435059 8.33331298828 -21.3333282471 0 rrcurveto
          -22.6666717529 0 -18 -8.33331298828 -13.3333282471 -16.6666870117 -10.6666717529 -13.3333129883 -5.33332824707 -15.6666870117 0 -18 rrcurveto
          endchar
        </CharString>
        <CharString name="Igrave">
          -260 48 642 rmoveto
          -78 callsubr
          21 44 rmoveto
          -85 callsubr
          endchar
        </CharString>
        <CharString name="J">
          -228 13 -187 rmoveto
          114 57 84.6666564941 169.333343506 hvcurveto
          573 -120 -580 vlineto
          -100.666671753 -19.6666717529 -50.3333282471 -39.3333282471 vhcurveto
          -20.6666717529 0 -17.6666564941 5 -14.6666717529 10 -11.3333282471 7.33334350586 -13.6666717529 13.3333282471 -16 19.3333282471 rrcurveto
          -61 -75 rlineto
          32 -28.6666717529 23.6666564941 -18.6666564941 15.3333435059 -8.66667175293 24.6666717529 -13.3333282471 30.6666564941 -6.66667175293 36.6666717529 0 rrcurveto
          endchar
        </CharString>
        <CharString name="K">
          67 216 255 rmoveto
          58.6666564941 -96 62 -92.6666564941 65.3333435059 -89.3333435059 rrcurveto
          140 31 -140 161 rlineto
          -57.3333435059 67.3333282471 -40.6666564941 53.6666717529 -24 40 rrcurveto
          208 290 -105 53 -201 -322 0 290 -119 0 0 -641 119 0 0 206 rlineto
          endchar
        </CharString>
        <CharString name="L">
          26 63 641 rmoveto
          -641 375 85 -258 556 vlineto
          endchar
        </CharString>
        <CharString name="Lslash">
          26 58 367 rmoveto
          -52 -20 0 -113 52 20 0 -254 380 0 0 105 -262 0 0 194 62 24 0 114 -62 -24 0 228 -118 0 rlineto
          endchar
        </CharString>
        <CharString name="M">
          318 588 427 rmoveto
          -427 131 642 -142 vlineto
          -178 -472 -174 472 -152 0 0 -642 106 0 0 431 153 -432 104 0 rlineto
          endchar
        </CharString>
        <CharString name="N">
          107 167 401 rmoveto
          106 -157.333328247 85.6666564941 -138.666671753 65.3333435059 -120 rrcurveto
          95 30 0 625 -102 0 0 -401 -258 405 -96 0 0 -644 103 0 rlineto
          endchar
        </CharString>
        <CharString name="Ntilde">
          95 181 395 rmoveto
          120.666656494 -178.666671753 86 -136.666671753 51.3333435059 -94.6666564941 rrcurveto
          85 30 0 625 -112 0 0 -381 -248 385 -96 0 0 -645 113 2 rlineto
          119 688 rmoveto
          -76 callsubr
          endchar
        </CharString>
        <CharString name="O">
          169 32 322 rmoveto
          0 -106 27.6666717529 -83.6666717529 55.3333282471 -61.3333282471 52 -58 68 -29 84 0 84.6666564941 0 69.3333435059 29 54 58 57.3333129883 61.3333282471 28.6666870117 83.6666717529 0 106 0 93.3333435059 -26.6666870117 77.3333129883 -53.3333129883 61.3333435059 -53.3333435059 61.3333129883 -69 30.6666870117 -84.6666564941 0 rrcurveto
          -85.3333282471 0 -70.3333435059 -30.6666870117 -55.3333282471 -61.3333129883 -55.3333282471 -61.3333435059 -27.6666717529 -77.3333129883 0 -93.3333435059 rrcurveto
          125 -9 rmoveto
          0 66 15 56.6666564941 30 47.3333435059 32 50 40.6666564941 25 49.3333435059 0 49.3333435059 0 40 -25 30.6666564941 -50 29.3333435059 -47.3333435059 14.6666564941 -57 0 -66.6666564941 0 -63.3333282471 -16 -55 -32 -46.6666717529 -33.3333435059 -48.6666564941 -40.3333129883 -24.3333435059 -47.3333435059 0 rrcurveto
          -46.6666564941 0 -38.6666717529 23.6666564941 -30.6666717529 47.3333435059 -30.6666717529 47.3333282471 -15.3333282471 56 0 64.6666717529 rrcurveto
          endchar
        </CharString>
        <CharString name="OE">
          553 585 157 rmoveto
          -157 379 107 -287 184 278 99 -278 144 287 105 -379 -129 vlineto
          -62 98 -81 49 -100 0 -88 0 -72 -29.5 -56 -59 -56 -59 -28 -76.1666564941 0 -93.3333435059 0 -106 28 -84.3333282471 56 -62.6666717529 54 -60 70 -30 86 0 102 0 83 53.3333282471 64 106.666671753 rrcurveto
          -424 174 rmoveto
          0 63.3333435059 17 53.6666564941 34 44 34 44 43 22 52 0 52 0 42.5 -21.8333129883 33 -43.6666870117 33 -43.6666564941 16.5 -53.8333435059 0 -64 0 -63.3333435059 -18 -54.6666564941 -36 -46 -36 -46 -42.6666564941 -23 -49.3333435059 0 rrcurveto
          -48.6666564941 0 -41.3333435059 23 -34 46 -34 46 -17 54.6666564941 0 63.3333435059 rrcurveto
          endchar
        </CharString>
        <CharString name="Oacute">
          169 37 322 rmoveto
          -75 callsubr
          115 -9 rmoveto
          -74 callsubr
          37 433 rmoveto
          -84 callsubr
          endchar
        </CharString>
        <CharString name="Ocircumflex">
          169 37 322 rmoveto
          -75 callsubr
          115 -9 rmoveto
          -74 callsubr
          43 348 rmoveto
          138 88 142 -87 0 97 -142 106 -138 -106 rlineto
          endchar
        </CharString>
        <CharString name="Odieresis">
          173 37 322 rmoveto
          -75 callsubr
          115 -9 rmoveto
          -74 callsubr
          217 435 rmoveto
          -88 callsubr
          -210 hmoveto
          -73 callsubr
          endchar
        </CharString>
        <CharString name="Ograve">
          169 37 322 rmoveto
          -75 callsubr
          115 -9 rmoveto
          -74 callsubr
          256 373 rmoveto
          -85 callsubr
          endchar
        </CharString>
        <CharString name="Omega">
          171 417 99 rmoveto
          26 vlineto
          46 10.6666717529 39.6666564941 29 33.3333435059 47.3333282471 33.3333129883 47.3333435059 16.6666870117 48.3333129883 0 49.3333435059 0 92 -23.1666870117 69.6666870117 -46.3333129883 47.3333129883 -46.3333435059 47.3333129883 -66.1666564941 23.6666870117 -86 0 -86.6666717529 0 -67.3333282471 -23 -48 -46 -50.6666564941 -48.6666870117 -25.3333435059 -70.3333129883 0 -92 rrcurveto
          0 -49.3333435059 16.1666717529 -48 32.3333282471 -46.6666564941 32.3333435059 -46.6666717529 38.8333282471 -29.3333282471 45.3333282471 -12 rrcurveto
          -26 -144 -99 229 203 vlineto
          -44.6666717529 0 -35 17 -25.3333282471 34 -20 27.3333435059 -10 31 0 34.6666564941 0 63.3333435059 14.3333282471 49.1666564941 28.6666717529 35 28.6666717529 35 39.6666717529 17.5 50.6666564941 0 102 -0.666687011719 51 -66.6666564941 0 -132.666656494 0 -32 -12 -31 -24 -30 rrcurveto
          -26.6666564941 -34 -33 -17 -39.3333435059 0 rrcurveto
          -203 230 99 vlineto
          endchar
        </CharString>
        <CharString name="Oslash">
          169 32 322 rmoveto
          0 -146 49 -101 98 -56 rrcurveto
          -18 -59 109 -34 18 60 rlineto
          13.3333435059 -1.33332824707 10.3333129883 -0.66667175293 7.33334350586 0 84.6666564941 0 69.3333435059 29 54 58 57.3333129883 61.3333282471 28.6666870117 83.6666717529 0 106 0 62 -12.3333129883 55.6666564941 -24.6666870117 49.3333435059 -24.6666870117 49.3333129883 -34 38.3333740234 -43.3333129883 27.3333129883 rrcurveto
          15 49 -109 34 -13 -44 rlineto
          -12.6666564941 2 -13.6666870117 1 -14.6666564941 0 -85.3333282471 0 -70.3333435059 -30.6666870117 -55.3333282471 -61.3333129883 -55.3333282471 -61.3333435059 -27.6666717529 -77.3333129883 0 -93.3333435059 rrcurveto
          286 -238 rmoveto
          122 406 rlineto
          39.3333435059 -46.6666564941 19.6666564941 -59.3333435059 0 -72 0 -62 -17.8333435059 -53.5 -35.6666564941 -45 -35.6666564941 -45 -42.1666870117 -22.5 -48.6666564941 0 rrcurveto
          -172 229 rmoveto
          0 64 16.8333282471 55.1666564941 33.6666717529 46.3333435059 33.6666717529 46.3333129883 42.1666717529 23.1666870117 50.6666564941 0 6 0 4.66665649414 -0.333312988281 3.33334350586 -0.666687011719 rrcurveto
          -125 -415 rlineto
          -44 47.3333282471 -22 60.3333435059 0 73.3333282471 rrcurveto
          endchar
        </CharString>
        <CharString name="Otilde">
          173 37 322 rmoveto
          -75 callsubr
          115 -9 rmoveto
          -74 callsubr
          148 386 rmoveto
          -76 callsubr
          endchar
        </CharString>
        <CharString name="P">
          0 179 259 rmoveto
          26.6666717529 -1.33334350586 17 -0.666656494141 7.33332824707 0 55.3333435059 0 50 19.5 44.6666564941 39 44.6666564941 39 22.3333435059 45.1666564941 0 51.3333435059 0 55.3333435059 -19 46.1666564941 -38 37 -38 37 -46.3333435059 18.1666870117 -54.6666564941 -0.666687011719 rrcurveto
          -188 -3 0 -641 116 0 rlineto
          569 vmoveto
          4.66667175293 0 7.33332824707 0.5 10 1 10 1 7.33332824707 0.166687011719 4.66667175293 -0.666687011719 72.6666564941 -6 36.3333435059 -41 0 -76 0 -32 -11.8333435059 -28.1666564941 -23.6666564941 -24.3333435059 -23.6666564941 -24.3333435059 -28.5000152588 -12.1666564941 -33.3333282471 0 rrcurveto
          -32 hlineto
          endchar
        </CharString>
        <CharString name="Q">
          183 464 41 rmoveto
          129 -119 75 84 -128 116 rlineto
          50 48 25 67.3333282471 0 86.6666717529 0 94 -26.6666870117 77.1666564941 -53.3333129883 60.3333435059 -53.3333435059 60.3333129883 -69.3333129883 30.1666870117 -85.3333435059 0 -86 0 -70.8333282471 -30.6666870117 -55.6666717529 -61.3333129883 -55.6666717529 -61.3333435059 -27.8333282471 -77.6666564941 0 -94 0 -106 27.6666717529 -84 55.3333282471 -62 rrcurveto
          53.3333282471 -58.6666717529 68.6666717529 -29.3333282471 84 0 43.3333435059 0 48 20 52.6666564941 40 rrcurveto
          -307 273 rmoveto
          0 66 15 56.3333435059 30 46.6666564941 32 49.3333129883 41 24.6666870117 50 0 49.3333435059 0 40.3333129883 -24.6666870117 31.3333435059 -49.3333129883 28.6666564941 -46 14.3333435059 -56 0 -66 0 -62.6666717529 -7.66665649414 -43.3333282471 -15.3333435059 -24 rrcurveto
          -69 62 -78 -83 76 -63 rlineto
          -23.3333435059 -19.3333435059 -26 -9.66665649414 -28.6666564941 0 -46 0 -38.6666717529 24.6666564941 -31.3333282471 49.3333435059 -29.3333282471 47.3333282471 -14.6666717529 56 0 64.6666717529 rrcurveto
          endchar
        </CharString>
        <CharString name="R">
          47 201 263 rmoveto
          80 -132 64.6666564941 -91.3333282471 49.3333435059 -50.6666717529 rrcurveto
          147 27 rlineto
          -100 100 -76.3333435059 86.6666717529 -52.6666564941 73.3333282471 36 11.3333435059 29.6666564941 20.6666564941 23.3333435059 30 26 34 13.3333435059 40 0.666656494141 46 0.666656494141 58 -15.6666564941 45.5 -32 33 -32 33 -46.3333435059 16.5 -60.6666564941 0 -23.3333282471 0 -30 -0.333312988281 -36.6666717529 -0.666687011719 rrcurveto
          -50.6666564941 -1.33331298828 -34.3333435059 -0.666687011719 -18 0 rrcurveto
          -641 116 263 vlineto
          306 vmoveto
          54 2 rlineto
          37.3333435059 1.33331298828 26.6666564941 -13.6666259766 16 -28.6666870117 11.3333435059 -19.3333435059 5.66665649414 -23.6666564941 0 -28 rrcurveto
          -84 -36.6666564941 -42 -73.3333435059 vhcurveto
          -41 hlineto
          endchar
        </CharString>
        <CharString name="S">
          -21 24 82 rmoveto
          -105 callsubr
          endchar
        </CharString>
        <CharString name="Scaron">
          17 24 82 rmoveto
          -105 callsubr
          368 716 rmoveto
          -91 callsubr
          endchar
        </CharString>
        <CharString name="T">
          61 332 hmoveto
          558 172 81 -473 -81 182 -558 vlineto
          endchar
        </CharString>
        <CharString name="Thorn">
          68 174 180 rmoveto
          52.5 -31.5 rlineto
          17.6666717529 -10.3333282471 17.4999847412 -5.16667175293 17.3333435059 0 64 0 50.6666564941 20.6666717529 37.3333435059 41.3333282471 42.6666564941 47.3333282471 21 70.6666717529 -0.666656494141 94 -0.666656494141 71.3333435059 -18 60.9999694824 -35.3333435059 50.6666870117 -40.6666564941 58 -54.3333435059 29 -68 0 -25.3333282471 0 -34.3333435059 -19.3333129883 -43.3333282471 -38.6666870117 rrcurveto
          81 -114 -808 114 vlineto
          618 vmoveto
          21.3333282471 44 28.6666717529 22 36 0 39.3333435059 0 30.3333129883 -19.3333129883 21.3333435059 -38.6666870117 18 -33.3333435059 9 -41 0 -48.6666564941 0 -47.3333435059 -8 -39 -16 -30.6666564941 -18.6666564941 -34.6666717529 -26.6666870117 -17.3333282471 -34.6666564941 0 -18.6666717529 0 -18.8333282471 5.33332824707 -19 10.6666717529 rrcurveto
          -19 10.6666717529 -14.5 12.6666717529 -10 14.6666564941 rrcurveto
          endchar
        </CharString>
        <CharString name="U">
          136 298 -17 rmoveto
          64 0 55.3333435059 19.3333282471 46.6666564941 38.6666717529 56 46 28 64.6666717529 0 83.3333282471 rrcurveto
          405 -119 -405 vlineto
          0 -52.6666717529 -13.3333435059 -41.6666564941 -26.6666564941 -30.6666717529 -23.3333435059 -26 -26.3333129883 -13 -29.3333435059 0 -30.6666564941 0 -27.6666717529 12.6666564941 -24.6666717529 25.3333435059 -30 30.6666717529 -15 42 0 53.3333282471 rrcurveto
          405 -119 -405 vlineto
          0 -83.3333282471 25.3333435059 -64.3333282471 50.6666564941 -45.3333435059 43.3333282471 -39.3333282471 53 -19.6666717529 62.6666717529 0 rrcurveto
          endchar
        </CharString>
        <CharString name="Uacute">
          96 283 -17 rmoveto
          -72 callsubr
          -136 763 rmoveto
          -84 callsubr
          endchar
        </CharString>
        <CharString name="Ucircumflex">
          96 283 -17 rmoveto
          -72 callsubr
          -138 688 rmoveto
          -80 callsubr
          endchar
        </CharString>
        <CharString name="Udieresis">
          46 283 -17 rmoveto
          -72 callsubr
          33 765 rmoveto
          -79 callsubr
          -209 hmoveto
          0 -18.6666870117 5.33334350586 -16 10.6666564941 -13.3333129883 13.3333282471 -16 18 -8 22.6666717529 0 22 0 17.3333282471 8 12.6666717529 16 11.3333282471 14 5.66667175293 16 0 18 0 17.3333129883 -5.66667175293 15.6666870117 -11.3333282471 14 -13.3333282471 16.6666870117 -17.3333435059 8.33331298828 -21.3333282471 0 rrcurveto
          -22.6666717529 0 -18 -8.33331298828 -13.3333282471 -16.6666870117 -10.6666564941 -13.3333129883 -5.33334350586 -15.6666870117 0 -18 rrcurveto
          endchar
        </CharString>
        <CharString name="Ugrave">
          96 283 -17 rmoveto
          -72 callsubr
          83 703 rmoveto
          -85 callsubr
          endchar
        </CharString>
        <CharString name="V">
          67 227 -10 rmoveto
          87 0 220 635 -103 33 -145 -471 -154 470 -124 -31 rlineto
          endchar
        </CharString>
        <CharString name="W">
          314 529 -6 rmoveto
          78 0 176 627 -100 28 -104 -440 -110 427 -103 0 -110 -428 -112 440 -133 -26 179 -628 88 0 129 402 rlineto
          endchar
        </CharString>
        <CharString name="X">
          77 275 244 rmoveto
          147 -269 125 35 -213 319 176 291 -93 44 -133 -257 -131 255 -116 -41 178 -304 -189 -307 111 -40 rlineto
          endchar
        </CharString>
        <CharString name="Y">
          28 310 hmoveto
          0 271 181 350 -92 33 -136 -283 -129 283 -123 -33 181 -350 0 -271 rlineto
          endchar
        </CharString>
        <CharString name="Yacute">
          28 316 hmoveto
          -89 callsubr
          -60 696 rmoveto
          62 -72 214 83 -62 78 rlineto
          endchar
        </CharString>
        <CharString name="Ydieresis">
          7 316 hmoveto
          -89 callsubr
          109 758 rmoveto
          -88 callsubr
          -210 hmoveto
          0 -18.6666870117 5.66665649414 -16 11.3333435059 -13.3333129883 12.6666564941 -16 17.6666717529 -8 22.6666717529 0 22 0 17.6666717529 8 13.3333282471 16 11.3333282471 14 5.66667175293 16 0 18 0 17.3333129883 -5.66667175293 15.6666870117 -11.3333282471 14 -13.3333282471 16.6666870117 -17.6666717529 8.33331298828 -22 0 rrcurveto
          -22.6666717529 0 -17.9999847412 -8.33331298828 -13.3333435059 -16.6666870117 -10.6666564941 -13.3333129883 -5.33334350586 -15.6666870117 0 -18 rrcurveto
          endchar
        </CharString>
        <CharString name="Z">
          69 478 99 rmoveto
          -284 0 300 456 -23 84 -403 0 0 -91 274 2 -307 -476 26 -74 417 0 rlineto
          endchar
        </CharString>
        <CharString name="Zcaron">
          69 483 99 rmoveto
          -274 0 278 459 -11 81 -392 0 0 -91 263 2 -279 -464 9 -86 406 0 rlineto
          -17 865 rmoveto
          -91 callsubr
          endchar
        </CharString>
        <CharString name="a">
          16 299 223 rmoveto
          -103 callsubr
          10 -169 rmoveto
          -102 callsubr
          endchar
        </CharString>
        <CharString name="aacute">
          16 126 626 rmoveto
          -84 callsubr
          -42 -492 rmoveto
          -103 callsubr
          10 -169 rmoveto
          -102 callsubr
          endchar
        </CharString>
        <CharString name="acircumflex">
          16 115 521 rmoveto
          -80 callsubr
          184 -386 rmoveto
          -103 callsubr
          10 -169 rmoveto
          -102 callsubr
          endchar
        </CharString>
        <CharString name="acute">
          -146 47 626 rmoveto
          -70 callsubr
          endchar
        </CharString>
        <CharString name="adieresis">
          16 285 598 rmoveto
          -88 callsubr
          -210 hmoveto
          0 -18.6666870117 5.66665649414 -16 11.3333435059 -13.3333129883 12.6666564941 -16 17.6666870117 -8 22.6666564941 0 22 0 17.6666717529 8 13.3333282471 16 11.3333282471 14 5.66667175293 16 0 18 0 17.3333129883 -5.66667175293 15.6666870117 -11.3333282471 14 -13.3333282471 16.6666870117 -17.6666717529 8.33331298828 -22 0 rrcurveto
          -22.6666564941 0 -18 -8.33331298828 -13.3333435059 -16.6666870117 -10.6666564941 -13.3333129883 -5.33334350586 -15.6666870117 0 -18 rrcurveto
          224 -375 rmoveto
          -103 callsubr
          10 -169 rmoveto
          -102 callsubr
          endchar
        </CharString>
        <CharString name="ae">
          300 541 429 rmoveto
          49.3333129883 24.6666870117 -34.3333435059 -68.6666564941 hvcurveto
          -1 -188 vlineto
          10.6666564941 38 11.6666870117 25.6666564941 12.6666564941 13.3333435059 16.6666564941 18 26.3333435059 9 36 0 rrcurveto
          -260 -430 rmoveto
          23.3333435059 8.66667175293 29.3333129883 19.6666564941 35.3333435059 30.6666717529 40.6666564941 -46.6666717529 58.3333435059 -23.3333282471 76 0 69.3333129883 0 58 29 46.6666870117 58 rrcurveto
          -54 71 rlineto
          -39.3333129883 -52 -37.6666870117 -26 -36 0 -82 0 -41.6666564941 57 -1.33334350586 114 rrcurveto
          300 65 hlineto
          0 62 -17 49.3333435059 -34 36.6666564941 -34 36.6666564941 -42.6666870117 18.3333435059 -51.3333129883 0 -66.6666564941 0 -54.6666870117 -20.3333435059 -42.6666564941 -40.6666564941 -33.3333435059 44 -46.6666564941 22 -60 0 -21.3333282471 0 -29.6666717529 -8.33334350586 -38 -16.6666564941 -40.6666564941 -18.6666564941 -34 -21.6666870117 -27.3333435059 -24.6666564941 rrcurveto
          61 -81 rlineto
          56 45.3333435059 43.3333282471 22.6666564941 30.6666717529 0 16.6666564941 0 14.3333435059 -5 12 -10 12 -10 6 -12 0 -14 rrcurveto
          -39 vlineto
          -32.6666564941 -4.66665649414 -29.3333435059 -5.33334350586 -26 -6 -60.6666717529 -14.6666564941 -41.3333282471 -15.3333435059 -22 -16 -34 -25.3333282471 -17 -40.3333435059 0 -55.3333282471 0 -47.3333435059 15 -37.6666564941 30 -28 28 -26 34.6666717529 -13 41.3333282471 0 34 0 30.3333282471 5 26.6666717529 10 rrcurveto
          -30 206 rmoveto
          53 9 0 -74 rlineto
          0 -19.3333435059 -13 -15.3333129883 -26 -11.3333435059 -20.6666717529 -9.33334350586 -21.3333282471 -4.66665649414 -22 0 -36.6666717529 0 -18 18 0.66667175293 36 0 26 11.6666717529 18.3333282471 23.3333282471 10.6666717529 9.33332824707 4 23 5.33332824707 36.6666717529 6.66667175293 rrcurveto
          endchar
        </CharString>
        <CharString name="agrave">
          16 374 626 rmoveto
          -104 callsubr
          140 -492 rmoveto
          -103 callsubr
          10 -169 rmoveto
          -102 callsubr
          endchar
        </CharString>
        <CharString name="ampersand">
          80 130 186 rmoveto
          0 51.3333282471 12.6666717529 35.3333282471 25.3333282471 19.3333435059 23.3333282471 -46.6666717529 47.3333435059 -57.3333282471 71.3333282471 -68 -28.6666564941 -30 -28.0000152588 -15 -27.3333282471 0 -30.6666717529 0 -24.3333282471 12.6666564941 -18 25.3333435059 -15.3333282471 21.3333282471 -7.66667175293 24.3333435059 0 27.3333282471 rrcurveto
          248 -126 rmoveto
          39.3333435059 -32 30.6666564941 -20 22 -8 rrcurveto
          64 87 rlineto
          -48 26 -31 19.3333282471 -14 12.6666717529 12 38 6 36 0 34 0 13.3333435059 -1.66665649414 16.6666564941 -3.33334350586 20 rrcurveto
          -4 27 -88 -16 rlineto
          6 -26 3 -24 0 -22 0 -9.33332824707 -1.33334350586 -9.66667175293 -2.66665649414 -10 -30 34 -33.6666564941 43.6666564941 -37.3333435059 53.3333435059 18.6666564941 5.33334350586 26.3333435059 2.66665649414 34 0 rrcurveto
          -16 80 rlineto
          -45.3333435059 -1.33334350586 -36.3333282471 -6 -27.3333282471 -10.6666564941 -12.6666717529 31.3333435059 -6.33332824707 25 0 18.6666564941 0 42 13.6666717529 21 27.3333282471 0 42 0 33.6666564941 -15.3333129883 25.3333435059 -30.6666870117 rrcurveto
          56 62 rlineto
          -24 28.6666870117 -23.3333435059 19.6666259766 -22.6666564941 10.6666870117 -18.6666564941 8.66668701172 -23.3333435059 4.33331298828 -28 0 -46 0 -39.3333282471 -15.6666870117 -32.6666717529 -31.3333129883 -32.6666564941 -31.3333129883 -16.3333435059 -39.3333740234 0 -47.3333129883 0 -38 11 -37.3333435059 22 -36.6666564941 -66.6666717529 -45.3333435059 -33.3333282471 -61.9999847412 0 -78.6666717529 rrcurveto
          0 -52 17 -43 34 -34 37.3333435059 -38 51.3333282471 -19 65.3333282471 0 29.3333435059 0 29.3333129883 7 29.3333435059 14 27.3333435059 13.3333282471 20 16 12.6666564941 18.6666717529 rrcurveto
          endchar
        </CharString>
        <CharString name="apple">
          74 302 453 rmoveto
          36 -33 29 33 36 28 -36 34 -29 -34 -36 hlineto
          -145 -294 rmoveto
          35 -34 30 34 35 28 -35 33 -30 -33 -35 hlineto
          65 61 rmoveto
          -23 18 23 vlineto
          1 15 rmoveto
          -10 14 10 vlineto
          1 18 rmoveto
          -13 45 13 vlineto
          -64 48 rmoveto
          -41 15 41 vlineto
          83 35 rmoveto
          23 -17 -23 vlineto
          -1 -15 rmoveto
          10 -14 -10 vlineto
          -2 -18 rmoveto
          13 -45 -13 vlineto
          64 -48 rmoveto
          42 -14 -42 vlineto
          endchar
        </CharString>
        <CharString name="approxequal">
          61 261 285 rmoveto
          22.6666564941 -18.6666564941 20.6666870117 -9.33334350586 18.6666564941 0 30 0 31 16.6666564941 32 33.3333435059 rrcurveto
          -38 95 -21 -24 rlineto
          -14.6666564941 -16 -9 -8 -3.33334350586 0 -4 0 -12.6666564941 7.16665649414 -21.3333435059 14.3333435059 -21.3333435059 14.3333435059 -21.3333282471 7.16665649414 -21.3333282471 0 -34 0 -34 -20.3333435059 -34 -40.6666564941 rrcurveto
          37 -98 rlineto
          20.6666717529 30.6666564941 12.3333282471 17.6666870117 4 4.66665649414 8.66667175293 10 8.33332824707 5 8 0 6.66667175293 0 12 -7 17.3333282471 -14 rrcurveto
          -178 vmoveto
          24 -18.6666564941 20.6666564941 -9.33334350586 17.3333435059 0 30 0 31 16.6666564941 32 33.3333435059 rrcurveto
          -38 95 -21 -24 rlineto
          -14.6666564941 -15.3333282471 -9 -7.66667175293 -3.33334350586 0 -4 0 -12.6666564941 7 -21.3333435059 14 -21.3333435059 14 -21.3333282471 7 -21.3333282471 0 -34 0 -34 -20.3333282471 -34 -40.6666717529 rrcurveto
          37 -97 rlineto
          20 29.3333435059 12.3333282471 17.3333129883 4.66667175293 5.33334350586 8.66667175293 10 8.33332824707 5 8 0 6 0 12 -7 18 -14 rrcurveto
          endchar
        </CharString>
        <CharString name="aring">
          16 240 566 rmoveto
          27.3333435059 0 22 8.16668701172 16.6666564941 16.3333129883 16.6666564941 16.3333129883 8.33334350586 20.8333740234 0 25.3333129883 0 24.6666870117 -8.33334350586 20.5 -16.6666564941 16.3333129883 -16.6666564941 16.3333129883 -22 8.16668701172 -27.3333435059 0 -26.6666717529 0 -21.6666564941 -8.16668701172 -16.6666717529 -16.3333129883 -16.6666717529 -16.3333129883 -8.33332824707 -20.5 0 -24.6666870117 rrcurveto
          0 -25.3333129883 8.33332824707 -20.8333740234 16.6666717529 -16.3333129883 16.6666717529 -16.3333129883 21.6666564941 -8.16668701172 26.6666717529 0 rrcurveto
          130 vmoveto
          22 11 -14.3333129883 -28.6666870117 -29.3333129883 -11 -14.6666870117 -22 -21.3333282471 -10.6666717529 14.6666870117 29.3333129883 28.6666870117 10.6666717529 14.3333129883 21.3333282471 hvcurveto
          59 -473 rmoveto
          -103 callsubr
          10 -169 rmoveto
          -102 callsubr
          endchar
        </CharString>
        <CharString name="asciicircum">
          61 165 443 rmoveto
          102 119 105 -119 60 72 -165 171 -162 -171 rlineto
          endchar
        </CharString>
        <CharString name="asciitilde">
          -80 209 403 rmoveto
          23.3333282471 -16 20.6666717529 -8 18 0 26 0 28 12.6666564941 30 25.3333435059 rrcurveto
          -26 87 -20 -23 rlineto
          -13.3333435059 -14 -10.3333129883 -6.66665649414 -7.33334350586 0.666656494141 -3.33334350586 0 -12.3333129883 6 -21.3333435059 12 -21.3333282471 12 -21.6666717529 6 -22 0 -34 0 -31.6666564941 -14.6666564941 -29.3333435059 -29.3333435059 rrcurveto
          29 -93 rlineto
          20.6666717529 26 13 15.6666564941 5.33332824707 5.33334350586 8.66667175293 8.66665649414 8.33332824707 4.33334350586 8 0 6.66667175293 0 11.6666564941 -5.66665649414 16.6666717529 -11.3333435059 rrcurveto
          endchar
        </CharString>
        <CharString name="asterisk">
          -200 169 500 rmoveto
          41 -38 42 70 -59 38 57 37 -40 71 -41 -38 3 52 -75 2 2 -56 -44 39 -40 -70 59 -38 -60 -37 42 -70 42 38 rlineto
          -2 -54 75 0 rlineto
          endchar
        </CharString>
        <CharString name="at">
          535 626 470 rmoveto
          -42 34 rlineto
          -16.6666870117 10.6666870117 -18.3333129883 5.33331298828 -20 0 -82.6666564941 0 -68.6666870117 -36.3333435059 -54.6666564941 -72.6666564941 -49.3333435059 -64.6666564941 -24.6666564941 -70.6666870117 0 -76.6666564941 0 -146 58.3333435059 -73 116.666656494 0 56.6666564941 0 51.0000305176 32 45.3333129883 64 21.3333129883 -64.6666717529 30.6666870117 -32.3333282471 40 0 rrcurveto
          72 0 64.8333129883 30.1666717529 57.6666870117 60.3333282471 57.6666870117 60.3333282471 28.8333129883 66.5 0 72.6666717529 0 128 -39.8333129883 103.5 -79.6666870117 79 -79.6666870117 79 -105.833312988 39.5 -132 0 -132.666656494 0 -113.166687012 -45 -93.6666564941 -90 -93.6666564941 -90 -46.8333435059 -108.333343506 0 -126.666656494 rrcurveto
          0 -136 38 -112.666671753 76 -89.3333282471 81.3333282471 -94.6666717529 108.666671753 -47.3333282471 136 0 96 0 74 12.3333282471 52 24.6666717529 34.6666870117 16 50.6666259766 38.3333282471 66.6666870117 60.6666717529 rrcurveto
          -60 69 rlineto
          -54.6666870117 -52.6666564941 -48 -35.6666870117 -41.3333129883 -18.6666564941 -44 -19.3333282471 -56.6666870117 -9.66667175293 -69.3333129883 0 -96 0 -78.3333435059 40.6666564941 -60.6666564941 81.3333435059 -57.3333282471 75.3333282471 -28.6666717529 91 0 106.666671753 0 100.666656494 34.6666717529 88.6666870117 69.3333282471 76.6666564941 71.3333435059 79.3333129883 85.6666564941 39.6666870117 100 0 rrcurveto
          100 0 81.3333129883 -33.5 62.6666870117 -67 62.6666870117 -67 31.3333129883 -84.5 0 -102 0 -48.6666717529 -15 -46.3333282471 -30 -44 -30 -44 -29 -22 -28 0 -26 0 -15 5.66665649414 -4 11.3333435059 rrcurveto
          -8 48 33 191 rlineto
          12 72 8.33331298828 63.3333435059 4.66668701172 54.6666564941 rrcurveto
          -90 hlineto
          -108 -74 rmoveto
          13.3333129883 0 16.3333740234 -5.33334350586 19.3333129883 -10.6666564941 19.3333129883 -10.6666564941 14 -11 8.66668701172 -11.3333435059 rrcurveto
          -34 -188 rlineto
          -4.66668701172 -27.3333282471 -16.8333129883 -28.3333435059 -29 -29.3333282471 -29 -29.3333435059 -24.5 -14.6666564941 -20 0 -37.3333435059 0 -25 16.3333435059 -12.6666564941 32.6666564941 -8 19.3333282471 -4 31 0 42.6666717529 0 78 20 59.3333435059 40 40.6666564941 29.3333435059 30.6666564941 31.3333129883 15.3333435059 33.3333435059 0 rrcurveto
          endchar
        </CharString>
        <CharString name="atilde">
          16 227 579 rmoveto
          -71 callsubr
          72 -356 rmoveto
          -103 callsubr
          10 -169 rmoveto
          -102 callsubr
          endchar
        </CharString>
        <CharString name="b">
          40 163 46 rmoveto
          56 -37.3333282471 39.6666564941 -18.6666717529 23.3333435059 0 130.666656494 0 65.3333435059 98.3333435059 0 196.666656494 0 60 -13.6666564941 52.3333435059 -27.3333435059 44.6666564941 -32 50.6666564941 -42.3333435059 25.3333435059 -52.6666564941 0 -20.6666564941 0 -24.3333435059 -8 -28 -16 -30.6666717529 -17.3333435059 -21.6666564941 -20 -12.6666717529 -22.6666564941 rrcurveto
          266 -108 -701 91 vlineto
          17 336 rmoveto
          30.6666717529 62.6666564941 34 31.3333435059 37.3333282471 0 59.3333435059 0 29.6666564941 -52.6666564941 0 -105.333343506 0 -56 -4 -41.3333282471 -8 -26.6666717529 -13.3333435059 -44.6666564941 -25.6666564941 -22.3333435059 -38 0 -16 0 -18.5 5 -21 10 -21 10 -15.5 11 -10 12 rrcurveto
          endchar
        </CharString>
        <CharString name="backslash">
          -90 6 683 rmoveto
          279 -856 109 24 -279 856 rlineto
          endchar
        </CharString>
        <CharString name="bar">
          -246 65 686 rmoveto
          -906 128 906 vlineto
          endchar
        </CharString>
        <CharString name="braceleft">
          61 332 725 rmoveto
          8.66665649414 0 21.3333435059 -6 34 -12 rrcurveto
          20 112 rlineto
          -40 10 -28.6666564941 5 -17.3333435059 0 -105.333328247 0 -52.6666717529 -71 0 -142 0 -12.6666870117 0.83332824707 -21 1.66667175293 -29.3333129883 1.66667175293 -29.3333129883 0.83332824707 -22.6666870117 0 -16 0 -25.3333435059 -6.66667175293 -23.3333129883 -13.3333282471 -21.3333435059 -5.33332824707 -8.66665649414 -14.6666717529 -18.3333435059 -24 -28 rrcurveto
          -1 -55 rlineto
          43.3333282471 -38.6666564941 21.6666717529 -44.3333435059 0 -50 0 -15.3333282471 -0.66667175293 -20.8333435059 -1.33332824707 -26.3333282471 -1.33332824707 -26.3333435059 -0.66667175293 -17.8333129883 0 -9.33334350586 0 -78 5.66667175293 -55.6666564941 11.3333282471 -33.3333435059 20 -57.3333282471 40.6666717529 -30.3333435059 61.3333282471 -3.33332824707 37.3333435059 -2 34.3333129883 4.33332824707 31.3333435059 10.6666717529 rrcurveto
          -30 119 rlineto
          -18 -16.6666564941 -23.3333435059 -8.33334350586 -28.6666564941 0 -12.6666564941 0 -8 5 -3.33334350586 10 -2 6.66665649414 -1 21.6666717529 0 36.6666717529 0 14 1.16665649414 25.8333282471 2.33334350586 37.6666717529 2.33334350586 37.6666564941 1.16665649414 26.1666717529 0 14.6666717529 0 38 -9 37.3333282471 -18 36.6666717529 rrcurveto
          -15.3333282471 30 -18.3333435059 24.6666564941 -21.3333282471 19.3333435059 rrcurveto
          7 vlineto
          48.6666564941 48.6666564941 24.3333435059 49.3333435059 0 50 0 9.33334350586 -0.833343505859 19.3333435059 -1.66665649414 29.3333129883 -1.66665649414 29.3333129883 -0.833343505859 23 0 16.6666870117 0 40.6666870117 1 24 2 7.33331298828 6 26 16 13 26 0 rrcurveto
          endchar
        </CharString>
        <CharString name="braceright">
          61 369 61 rmoveto
          0 9.33334350586 -0.5 17.8333129883 -1 26.3333435059 -1 26.3333282471 -0.5 20.8333435059 0 15.3333282471 0 50 21.6666564941 44.3333435059 43.3333435059 38.6666564941 rrcurveto
          -1 55 rlineto
          -24 28 -14.6666564941 18.3333435059 -5.33334350586 8.66665649414 -13.3333435059 21.3333435059 -6.66665649414 23.3333129883 0 25.3333435059 0 16 0.833343505859 22.6666870117 1.66665649414 29.3333129883 1.66665649414 29.3333129883 0.833343505859 21 0 12.6666870117 0 142 -52.6666564941 71 -105.333343506 0 -17.3333282471 0 -28.6666717529 -5 -40 -10 rrcurveto
          20 -112 rlineto
          34 12 21.3333282471 6 8.66667175293 0 26 0 16 -13 6 -26 2 -7.33331298828 1 -24 0 -40.6666870117 0 -16.6666870117 -0.833343505859 -23 -1.66665649414 -29.3333129883 -1.66665649414 -29.3333129883 -0.833343505859 -19.3333435059 0 -9.33334350586 0 -50 24.3333435059 -49.3333435059 48.6666564941 -48.6666564941 rrcurveto
          -7 vlineto
          -21.3333435059 -19.3333435059 -18 -24.6666564941 -14.6666564941 -30 -18.6666564941 -36.6666717529 -9.33334350586 -37.3333282471 0 -38 0 -14.6666717529 1.16667175293 -26.1666717529 2.33332824707 -37.6666564941 2.33332824707 -37.6666717529 1.16667175293 -25.8333282471 0 -14 rrcurveto
          -39 vlineto
          -0.66667175293 -16 -1.83332824707 -10.8333435059 -3 -5.66665649414 -3 -5.66665649414 -7.16667175293 -2.83334350586 -11.3333282471 0 -28.6666717529 0 -23.6666564941 8.33334350586 -18.6666717529 16.6666564941 rrcurveto
          -29 -119 rlineto
          30.6666717529 -10.6666717529 34.3333282471 -4.33332824707 38 2 61.3333435059 3.33332824707 40.3333129883 30 19.3333435059 56.6666717529 11.3333435059 33.3333435059 5.66665649414 55.9999847412 0 78.6666717529 rrcurveto
          endchar
        </CharString>
        <CharString name="bracketleft">
          -250 72 740 rmoveto
          -854 163 105 -65 662 58 87 vlineto
          endchar
        </CharString>
        <CharString name="bracketright">
          -209 50 -9 rmoveto
          -105 160 854 -152 -87 57 -662 vlineto
          endchar
        </CharString>
        <CharString name="breve">
          -130 26 642 rmoveto
          25.3333282471 -69.3333129883 48.3333282471 -34.6666870117 71.3333435059 0 67.3333282471 0 45.6666717529 34.6666870117 24 69.3333129883 rrcurveto
          -75 10 rlineto
          -14.6666717529 -32 -21 -16 -27.3333282471 0 -29.3333282471 0 -22.6666717529 15.6666870117 -16 31.3333129883 rrcurveto
          endchar
        </CharString>
        <CharString name="brokenbar">
          -293 54 278 rmoveto
          -296 77 296 vlineto
          -77 378 rmoveto
          -296 77 296 vlineto
          endchar
        </CharString>
        <CharString name="bullet">
          -193 140 190 rmoveto
          24.6666717529 0 21.3333282471 9.66667175293 18 19.3333282471 18 19.3333282471 9 24.0000152588 0 28.6666564941 0 28.6666564941 -9 23.8333435059 -18 19 -18 19 -21.3333282471 9.5 -24.6666717529 0 -25.3333435059 0 -21.6666564941 -9.5 -18 -19 -18 -19 -9 -23.8333435059 0 -28.6666564941 rrcurveto
          0 -29.3333435059 9 -24.1666564941 18 -19 18 -19 21.6666564941 -9.5 25.3333435059 0 rrcurveto
          endchar
        </CharString>
        <CharString name="c">
          4 39 242 rmoveto
          0 -54.6666717529 14 -50.3333282471 28 -46 40.6666564941 -68.6666717529 64.0000152588 -34.3333282471 87.3333282471 0 37.3333435059 0 32 6.5 26.6666564941 13 26.6666564941 13 26.3333435059 21.5 26 30 rrcurveto
          -45 59 rlineto
          -47.3333435059 -42.6666564941 -43.3333129883 -21.3333435059 -39.3333435059 0 -34.6666717529 0 -28.1666564941 15.8333435059 -21.6666717529 31.6666564941 -21.6666717529 31.6666717529 -10.8333282471 41.5 0 51.3333282471 0 49.3333435059 8.66667175293 42.6666564941 17.3333282471 36 20 42.6666564941 28 21.3333435059 36 0 42 0 42.6666564941 -17.6666564941 43.3333435059 -35.3333435059 rrcurveto
          33 69 rlineto
          -63.3333435059 42.6666564941 -50.6666564941 21.3333435059 -38 0 -62 0.666656494141 -52.6666717529 -20.6666564941 -43.3333282471 -42 -52 -48.6666564941 -26 -69 0 -89.3333435059 rrcurveto
          endchar
        </CharString>
        <CharString name="caron">
          -138 315 725 rmoveto
          -91 callsubr
          endchar
        </CharString>
        <CharString name="ccedilla">
          8 392 -132 rmoveto
          0 23.3333435059 -7.66665649414 20 -15.3333435059 16.6666564941 -17.3333435059 19.3333282471 -22.6666564941 9.66667175293 -28 0 -10.6666564941 0 -8.33334350586 -1.33332824707 -6 -2.66667175293 rrcurveto
          3 35 4 0 rlineto
          63.3333435059 2.66667175293 55 28 46.6666564941 53.3333282471 rrcurveto
          -45 59 rlineto
          -47.3333435059 -42.6666564941 -43.3333129883 -21.3333435059 -39.3333435059 0 -34.6666717529 0 -28.1666564941 15.8333435059 -21.6666717529 31.6666564941 -21.6666717529 31.6666717529 -10.8333282471 41.5 0 51.3333282471 0 49.3333435059 8.66667175293 42.6666564941 17.3333282471 36 20 42.6666564941 28 21.3333435059 36 0 42 0 42.6666564941 -17.6666564941 43.3333435059 -35.3333435059 rrcurveto
          33 69 rlineto
          -63.3333435059 42.6666564941 -50.6666564941 21.3333435059 -38 0 -62 0.666656494141 -52.6666717529 -20.6666564941 -43.3333282471 -42 -52 -48.6666564941 -26 -69 0 -89.3333435059 0 -48 11.3333282471 -45.6666717529 22.6666717529 -43.3333282471 32.6666564941 -63.3333282471 50.6666717529 -37.6666717529 68.6666717529 -12 rrcurveto
          -4 0 -4 -82 47 -21 rlineto
          13.3333435059 10 11.3333129883 5 9.33334350586 0 rrcurveto
          22.6666564941 11.3333435059 -13 -26 -22.6666717529 -12 -11.3333282471 -24 hvcurveto
          -14.6666564941 0 -16.6666870117 10.6666717529 -18.6666564941 21.3333282471 rrcurveto
          -37 -34 rlineto
          15.3333282471 -32 28.6666717529 -16 42 0 30.6666564941 0 24.3333435059 9 18 18 16 16.6666717529 8 20 0 23.3333282471 rrcurveto
          -113 120 rmoveto
          -57 4 -5 -82 47 -21 rlineto
          13.3333435059 10 11.3333129883 5 9.33334350586 0 rrcurveto
          22.6666564941 11.3333435059 -13 -26 -22.6666717529 -12 -11.3333282471 -24 hvcurveto
          -14.6666564941 0 -16.6666870117 10.6666717529 -18.6666564941 21.3333282471 rrcurveto
          -37 -34 rlineto
          15.3333282471 -32 28.6666717529 -16 42 0 30.6666564941 0 24.3333435059 9 18 18 16 16.6666717529 8 20 0 23.3333282471 0 23.3333435059 -7.66665649414 20 -15.3333435059 16.6666564941 -17.3333435059 19.3333282471 -22.6666564941 9.66667175293 -28 0 -10.6666564941 0 -8.33334350586 -1.33332824707 -6 -2.66667175293 rrcurveto
          endchar
        </CharString>
        <CharString name="cedilla">
          -270 11 -176 rmoveto
          18.6666717529 -42 33 -21 47.3333282471 0 29.3333282471 0 22.6666717529 13 16 26 12.6666717529 20.6666717529 6.33332824707 23.3333282471 0 26 0 24 -7.33332824707 21 -14.6666717529 18 -17.3333282471 20.6666717529 -22.6666717529 10.3333282471 -28 0 rrcurveto
          -3 0 3 41 -80 -1 -6 -109 57 -17 rlineto
          4.66665649414 10.6666564941 12 5.33334350586 19.3333435059 0 4 0 4.5 -3.83334350586 5 -7.66665649414 5 -7.66665649414 2.5 -8.16667175293 0 -8.66667175293 0 -6 -2.66667175293 -8.16667175293 -5.33332824707 -10.3333282471 -5.33334350586 -10.3333282471 -5.33331298828 -5.16667175293 -5.33334350586 0 -19.3333435059 0 -19.6666564941 11.6666717529 -20 23.3333282471 rrcurveto
          endchar
        </CharString>
        <CharString name="cent">
          4 38 242 rmoveto
          0 -48.6666717529 9.66667175293 -45.3333282471 19.3333282471 -42 28.6666564941 -63.3333282471 47.0000152588 -39 65.3333282471 -14.6666717529 rrcurveto
          -78 118 79 vlineto
          42.6666564941 12 41 26.3333282471 39.3333435059 40.6666717529 rrcurveto
          -58 71 rlineto
          -28.6666564941 -27.3333435059 -21.6666870117 -18 -14.6666564941 -8.66665649414 -19.3333435059 -12.6666564941 -20 -6.33334350586 -20.6666564941 0 -28.6666717529 0 -25.6666564941 16.1666564941 -22.6666717529 32.3333435059 -22.6666717529 32.3333282471 -11.3333282471 41.1666717529 0 50 0 51.3333435059 10.3333282471 45 20.6666717529 38.6666564941 22 41.3333435059 27.6666717529 20.6666564941 33.3333282471 0 rrcurveto
          18.6666564941 0 18.3333435059 -5.33334350586 18 -10.6666564941 8.66665649414 -5.33334350586 21.3333435059 -16.3333129883 34 -27.3333435059 rrcurveto
          49 76 rlineto
          -38.6666564941 31.3333435059 -37 19.6666564941 -35.3333435059 8 rrcurveto
          84 -118 -85 vlineto
          -49.3333282471 -12.6666564941 -39.6666717529 -26.6666870117 -30 -40.6666564941 -34 -46.6666564941 -17 -61 0 -75.3333435059 rrcurveto
          endchar
        </CharString>
        <CharString name="circumflex">
          -138 35 521 rmoveto
          -80 callsubr
          endchar
        </CharString>
        <CharString name="colon">
          -231 36 420 rmoveto
          0 -24 8.66667175293 -20.5 17.3333282471 -17 17.3333435059 -17 20.3333129883 -8.5 23.3333435059 0 23.3333282471 0 20.3333435059 8.5 17.3333282471 17 17.3333282471 17 8.66667175293 20.5 0 24 0 24 -8.5 20.3333435059 -17 16.6666564941 -17 16.6666564941 -20.5 8.33334350586 -24 0 rrcurveto
          -23.3333435059 0 -20.3333129883 -8.33334350586 -17.3333435059 -16.6666564941 -17.3333282471 -16.6666564941 -8.66667175293 -20.3333435059 0 -24 rrcurveto
          -343 vmoveto
          -106 callsubr
          endchar
        </CharString>
        <CharString name="comma">
          -221 107 -107 rmoveto
          -107 callsubr
          endchar
        </CharString>
        <CharString name="copyright">
          321 396 102 rmoveto
          38 0 42.3333435059 12.3333435059 46.6666564941 24.6666564941 rrcurveto
          -25 42 rlineto
          -32.6666564941 -18.6666717529 -34 -9.33332824707 -35.3333435059 0 -34 0 -28.6666564941 14.8333282471 -23.3333435059 29.6666717529 -23.3333435059 29.6666717529 -11.6666564941 37.4999847412 0 45.3333435059 0 40.6666564941 9 36.3333435059 18 32 23.3333435059 40.6666564941 33 20.3333435059 42.6666564941 0 23.3333435059 0 31.3333129883 -12 39.3333435059 -24 rrcurveto
          24 51 rlineto
          -40.6666564941 23.3333129883 -40.3333435059 11.6666870117 -40 0 -58 -0.666687011719 -45.6666564941 -22.6666564941 -33.3333435059 -44.6666564941 -29.3333282471 -39.3333435059 -14.6666717529 -48 0 -56.6666564941 0 -60 14.3333282471 -49.6666717529 28.6666717529 -39.3333282471 32.6666564941 -44.6666564941 45.3333435059 -22.3333435059 58 0 rrcurveto
          -264 214 rmoveto
          0 73.3333435059 26 62.6666564941 52 52 52 52 62.6666564941 26 73.3333435059 0 73.3333435059 0 62.6666564941 -26 52 -52 52 -52 26 -62.6666564941 0 -73.3333435059 0 -73.3333282471 -26 -62.6666717529 -52 -52 -52 -52 -62.6666564941 -26 -73.3333435059 0 rrcurveto
          -73.3333435059 0 -62.6666564941 26 -52 52 -52 52 -26 62.6666717529 0 73.3333282471 rrcurveto
          -65 hmoveto
          -90 callsubr
          endchar
        </CharString>
        <CharString name="currency">
          14 244 349 rmoveto
          162 88 -162 98 178 105 -295 -203 -91 -87 91 -46 -91 -78 91 hlineto
          -226 292 110 vlineto
          -175 -1 0 117 162 0 0 78 -162 0 rlineto
          endchar
        </CharString>
        <CharString name="d">
          36 356 -1 rmoveto
          92 698 -108 -235 hlineto
          -31.3333435059 24.6666564941 -20.6666564941 14.6666870117 -10 4.66665649414 -18 8 -26 4 -34 0 -47.3333282471 0 -39.6666717529 -29 -32 -58 -29.3333282471 -53.3333435059 -14.6666717529 -61 0 -68.6666564941 0 -68.6666717529 14.3333282471 -58.3333282471 28.6666717529 -48 34 -57.3333282471 47.3333282471 -28.6666717529 60.6666717529 0 rrcurveto
          15.3333282471 0 21.6666717529 8 28 16 rrcurveto
          61 38 rlineto
          -111 380 rmoveto
          21.3333435059 0 20 -10 18.6666564941 -20 6.66665649414 -6.66665649414 14.3333435059 -19 22 -31.3333435059 rrcurveto
          -215 vlineto
          -42.6666564941 -34.6666564941 -31.3333435059 -17.3333435059 -20 0 -30 0 -23 18.6666564941 -16 37.3333435059 -14.6666717529 32.6666717529 -7.33332824707 42.6666564941 0 52.6666717529 0 113.333343506 27.3333282471 56.6666564941 54.6666717529 0 rrcurveto
          endchar
        </CharString>
        <CharString name="dagger">
          -254 135 534 rmoveto
          57 66 -57 55 -64 -55 -48 -66 48 -201 64 hlineto
          endchar
        </CharString>
        <CharString name="daggerdbl">
          -254 141 383 rmoveto
          62 59 -62 80 62 58 -62 75 -77 -75 -60 -58 60 -80 -60 hlineto
          -59 60 -138 77 vlineto
          endchar
        </CharString>
        <CharString name="degree">
          -202 278 582 rmoveto
          0 38.6666870117 -13.3333435059 33 -26.6666564941 27.3333129883 -26.6666717529 27.3333129883 -33.3333282471 13.6666870117 -40 0 -40 0 -33.8333435059 -13.6666870117 -27.6666564941 -27.3333129883 -27.6666717529 -27.3333129883 -13.8333282471 -33 0 -38.6666870117 0 -38.6666870117 13.8333282471 -32.9999694824 27.6666717529 -27.3333435059 27.6666564941 -27.3333435059 33.8333435059 -13.6666564941 40 0 rrcurveto
          40 0 33.3333282471 13.6666564941 26.6666717529 27.3333435059 26.6666564941 27.3333435059 13.3333435059 32.9999694824 0 38.6666870117 rrcurveto
          -210 hmoveto
          0 20 6.66665649414 16.6666870117 13.3333435059 13.3333129883 13.3333435059 13.3333129883 16.6666564941 6.66668701172 20 0 20 0 16.1666717529 -6.66668701172 12.3333282471 -13.3333129883 12.3333282471 -13.3333129883 6.16667175293 -16.6666870117 0 -20 0 -20 -6.16667175293 -16.6666870117 -12.3333282471 -13.3333129883 -12.3333282471 -13.3333129883 -16.1666717529 -6.66668701172 -20 0 rrcurveto
          -20 0 -16.6666564941 6.66668701172 -13.3333435059 13.3333129883 -13.3333435059 13.3333129883 -6.66665649414 16.6666870117 0 20 rrcurveto
          endchar
        </CharString>
        <CharString name="dieresis">
          -169 185 628 rmoveto
          -73 callsubr
          -210 hmoveto
          -77 callsubr
          endchar
        </CharString>
        <CharString name="divide">
          21 190 480 rmoveto
          0 -21.3333435059 7 -18.3333129883 14 -15.3333435059 14 -15.3333435059 17 -7.66665649414 20 0 20.6666564941 0 17.3333435059 7.66665649414 14 15.3333435059 14 15.3333435059 7 18.3333129883 0 21.3333435059 0 22 -7 18.6666870117 -14 15.3333129883 -14 15.3333129883 -17.3333435059 7.66668701172 -20.6666564941 0 rrcurveto
          -20 0 -17 -7.66668701172 -14 -15.3333129883 -14 -15.3333129883 -7 -18.6666870117 0 -22 rrcurveto
          -138 -120 rmoveto
          -100 404 100 vlineto
          -266 -218 rmoveto
          0 -22 7 -18.6666564941 14 -15.3333435059 14 -15.3333435059 17 -7.66665649414 20 0 20.6666564941 0 17.3333435059 7.66665649414 14 15.3333435059 14 15.3333435059 7 18.6666564941 0 22 0 21.3333282471 -7 18.3333435059 -14 15.3333282471 -14 15.3333282471 -17.3333435059 7.66667175293 -20.6666564941 0 rrcurveto
          -20 0 -17 -7.66667175293 -14 -15.3333282471 -14 -15.3333282471 -7 -18.3333435059 0 -21.3333282471 rrcurveto
          endchar
        </CharString>
        <CharString name="dollar">
          61 328 -100 rmoveto
          93 vlineto
          86 26 43 60.6666564941 0 95.3333435059 0 68 -21.3333435059 50.3333435059 -42.6666564941 32.6666564941 -17.3333435059 13.3333435059 -39.3333129883 17 -61.3333435059 20.6666564941 -42.6666717529 14.6666564941 -21.3333282471 19.6666870117 0 24.6666564941 0 24.6666564941 5.83332824707 19.1666870117 11.6666717529 13.6666564941 11.6666717529 13.6666564941 15.1666564941 6.83334350586 18.6666717529 0 rrcurveto
          30.6666564941 0 35.6666870117 -18 40.6666564941 -36 rrcurveto
          62 77 rlineto
          -42.6666564941 35.3333129883 -38.3333435059 22.3333740234 -34 9.33331298828 rrcurveto
          86 -117 -89 vlineto
          -34 -12 -27.6666717529 -19.6666870117 -21.3333282471 -27.3333129883 -22 -29.3333129883 -11.3333435059 -33.6666870117 -0.666656494141 -38 -0.666656494141 -63.3333435059 21.3333129883 -47.6666564941 43.3333435059 -32 12.6666717529 -8.66665649414 40 -18.3333435059 67.3333282471 -28 44 -17.3333282471 22 -23 0 -28.6666717529 0 -26 -7.66665649414 -21.5 -15.3333435059 -17 rrcurveto
          -15.3333435059 -17 -19 -8.5 -22.6666564941 0 -44 0 -42.3333282471 25 -40.6666717529 50 rrcurveto
          -65 -79 rlineto
          33.3333435059 -48.6666717529 46.3333282471 -30 59.3333282471 -11.3333282471 rrcurveto
          -90 vlineto
          endchar
        </CharString>
        <CharString name="dotaccent">
          -238 55 576 rmoveto
          0 -18.6666870117 7 -16 14 -13.3333129883 14 -13.3333129883 17.3333435059 -6.66668701172 20.6666564941 0 20.6666717529 0 17.3333282471 6.66668701172 14 13.3333129883 14 13.3333129883 7 16 0 18.6666870117 0 18.6666870117 -7.16667175293 16 -14.3333282471 13.3333129883 -14.3333282471 13.3333129883 -17.1666717529 6.66668701172 -20 0 rrcurveto
          -20.6666564941 0 -17.3333435059 -6.5 -14 -13 -14 -13 -7 -16.1666870117 0 -19.3333129883 rrcurveto
          endchar
        </CharString>
        <CharString name="dotlessi">
          -242 63 495 rmoveto
          -99 callsubr
          endchar
        </CharString>
        <CharString name="e">
          16 275 68 rmoveto
          -101 callsubr
          70 255 rmoveto
          -100 callsubr
          endchar
        </CharString>
        <CharString name="eacute">
          22 126 626 rmoveto
          -70 callsubr
          -66 -647 rmoveto
          -101 callsubr
          70 255 rmoveto
          -100 callsubr
          endchar
        </CharString>
        <CharString name="ecircumflex">
          22 135 561 rmoveto
          -80 callsubr
          140 -581 rmoveto
          -101 callsubr
          70 255 rmoveto
          -100 callsubr
          endchar
        </CharString>
        <CharString name="edieresis">
          22 285 628 rmoveto
          -69 callsubr
          -210 hmoveto
          0 -18.6666870117 5.66665649414 -16 11.3333435059 -13.3333129883 12.6666564941 -16 17.6666870117 -8 22.6666564941 0 22 0 17.6666717529 8 13.3333282471 16 11.3333282471 14 5.66667175293 16 0 18 0 17.3333129883 -5.66667175293 15.6666870117 -11.3333282471 14 -13.3333282471 16.6666870117 -17.6666717529 8.33331298828 -22 0 rrcurveto
          -22.6666564941 0 -17.6666870117 -8.33331298828 -12.6666564941 -16.6666870117 -11.3333435059 -14 -5.66665649414 -15.6666870117 0 -17.3333129883 rrcurveto
          200 -560 rmoveto
          -101 callsubr
          70 255 rmoveto
          -100 callsubr
          endchar
        </CharString>
        <CharString name="egrave">
          22 404 626 rmoveto
          -43 -72 -214 83 42 78 rlineto
          86 -647 rmoveto
          -101 callsubr
          70 255 rmoveto
          -100 callsubr
          endchar
        </CharString>
        <CharString name="eight">
          139 179 rmoveto
          0 50 37.3333282471 44 74.6666717529 38 72 -28.6666564941 36 -44.0000152588 0 -59.3333282471 0 -34.6666717529 -10.6666564941 -28.8333282471 -21.3333435059 -23 -21.3333435059 -23 -26.3333129883 -11.5 -31.3333435059 0 -26.6666717529 0 -23.6666564941 9 -20.6666717529 18 -25.3333282471 22 -12.6666717529 31.3333282471 0 40.6666717529 rrcurveto
          34 318 rmoveto
          2.66667175293 27.3333129883 10 21.6666870117 17.3333282471 16 16 14 18.3333282471 7 20.6666717529 0 22.6666564941 0 19.5 -8.66668701172 16.3333435059 -17.3333129883 16.3333435059 -17.3333129883 8.16665649414 -20.6666870117 0 -24 0 -39.3333435059 -30 -31.3333129883 -60 -23.3333435059 -44 18.6666564941 -26 32 -8 45.3333435059 rrcurveto
          -137 -320 rmoveto
          0 -66.6666564941 21.6666717529 -51.6666717529 43.3333282471 -36.6666717529 38.6666717529 -33.3333282471 50.3333282471 -16.6666717529 62 0 72.6666564941 0 55.6666870117 20.3333282471 38.6666564941 40.6666717529 35.3333435059 36.6666564941 17.6666564941 48.6666870117 0 60.6666564941 0 70.6666717529 -45.3333435059 59.6666717529 -90.6666564941 48.6666564941 64.6666564941 44 32.3333435059 48.3333435059 0 52.6666564941 rrcurveto
          0 50.6666870117 -18.3333435059 39.3333129883 -36.6666564941 28 -32.6666564941 24.6666870117 -40 12.3333129883 -47.3333435059 0 -51.3333282471 0 -43 -12.3333129883 -34.6666717529 -24.6666870117 -41.3333435059 -29.3333129883 -20.6666564941 -42.3333740234 0 -55.3333129883 0 -48.6666564941 35 -47.3333435059 70 -46 -90.6666564941 -46 -45.3333435059 -58.3333282471 0 -70.6666717529 rrcurveto
          endchar
        </CharString>
        <CharString name="ellipsis">
          425 603 53 rmoveto
          0 -27.3333282471 8.66668701172 -21.6666717529 17.3333129883 -16 17.3333129883 -16 20.3333740234 -8 23.3333129883 0 24 0 20.3333129883 8 16.6666870117 16 16.6666870117 16 8.33331298828 21.6666717529 0 27.3333282471 0 28 -8.33331298828 21.8333435059 -16.6666870117 15.6666564941 -16.6666870117 15.6666717529 -20.3333129883 7.83332824707 -24 0 rrcurveto
          -24 0 -20 -7.33332824707 -16 -14.6666717529 -18 -16.6666564941 -9 -22.3333435059 0 -28 rrcurveto
          -239 hmoveto
          0 -27.3333282471 8.66665649414 -21.6666717529 17.3333435059 -16 17.3333435059 -16 20.3333129883 -8 23.3333435059 0 24 0 20.3333435059 8 16.6666564941 16 16.6666870117 16 8.33331298828 21.6666717529 0 27.3333282471 0 28 -8.33331298828 21.8333435059 -16.6666870117 15.6666564941 -16.6666564941 15.6666717529 -20.3333435059 7.83332824707 -24 0 rrcurveto
          -24 0 -20 -7.33332824707 -16 -14.6666717529 -18 -16.6666564941 -9 -22.3333435059 0 -28 rrcurveto
          -239 hmoveto
          0 -27.3333282471 8.66667175293 -21.6666717529 17.3333282471 -16 17.3333282471 -16 20.3333435059 -8 23.3333282471 0 24 0 20.3333435059 8 16.6666564941 16 16.6666564941 16 8.33334350586 21.6666717529 0 27.3333282471 0 28 -8.33334350586 21.8333435059 -16.6666564941 15.6666564941 -16.6666564941 15.6666717529 -20.3333435059 7.83332824707 -24 0 rrcurveto
          -24 0 -20 -7.33332824707 -16 -14.6666717529 -18 -16.6666564941 -9 -22.3333435059 0 -28 rrcurveto
          endchar
        </CharString>
        <CharString name="emdash">
          525 27 363 rmoveto
          -71 946 71 vlineto
          endchar
        </CharString>
        <CharString name="endash">
          34 363 rmoveto
          -71 432 71 vlineto
          endchar
        </CharString>
        <CharString name="equal">
          -34 89 352 rmoveto
          -98 321 98 vlineto
          -321 -129 rmoveto
          -98 321 98 vlineto
          endchar
        </CharString>
        <CharString name="eth">
          104 281 448 rmoveto
          37.3333435059 0 43.6666564941 -34.3333435059 50 -68.6666564941 0 0.666656494141 -0.333343505859 -32.3333129883 -0.666656494141 -65.3333435059 -0.666656494141 -53.3333282471 -10 -44 -19.3333435059 -34.6666717529 -22.6666564941 -40 -32.6666870117 -20 -42.6666564941 0 -35.3333282471 0 -30.6666717529 21.3333435059 -26 42.6666564941 -24 40 -12 43.6666717529 0 47.3333282471 rrcurveto
          0 56.6666564941 10.6666717529 46.3333435059 21.3333282471 36 23.3333282471 38.6666564941 31.3333435059 19.3333435059 39.3333282471 0 rrcurveto
          10 171 rmoveto
          -88 -73 140 hlineto
          27 -31 rlineto
          15.3333435059 -19.3333435059 7.66665649414 -17 0 -14.6666564941 -56 38 -36.6666564941 19 -17.3333435059 0 -70 0 -57 -20.6666564941 -44 -41.3333435059 -50.6666717529 -47.3333435059 -25.3333282471 -70 0 -92.6666564941 0 -68.6666717529 19 -59.6666717529 38 -50.6666564941 43.3333282471 -58 56.6666717529 -29 70 0 rrcurveto
          172 0 87.3333129883 98.6666564941 2.66668701172 197.333343506 0.666687011719 33.3333435059 -5 42.6666564941 -10.6666870117 52 -11.3333435059 56 -14 46.3333435059 -16.6666564941 36.6666564941 rrcurveto
          75 73 -134 hlineto
          -26.6666564941 39.3333129883 -33 39 -39.3333435059 38.6666870117 rrcurveto
          -75 -53 rlineto
          28.6666564941 -29.3333129883 18.6666870117 -21.3333740234 8.66665649414 -13.3333129883 rrcurveto
          endchar
        </CharString>
        <CharString name="exclam">
          -240 56 172 rmoveto
          125 514 -125 hlineto
          -19 -642 rmoveto
          0 -21.3333282471 7.33332824707 -18.1666717529 14.6666717529 -15 14.6666564941 -15 18 -7.5 21.3333435059 0 22 0 18.6666717529 7.33332824707 15.3333282471 14.6666717529 15.3333282471 14.6666717529 7.66667175293 18.3333282471 0 22 0 21.3333435059 -7.66667175293 18.3333129883 -15.3333282471 15.3333435059 -15.3333282471 15.3333435059 -18.6666717529 7.66665649414 -22 0 rrcurveto
          -21.3333435059 0 -18 -7.66665649414 -14.6666564941 -15.3333435059 -14.6666717529 -15.3333435059 -7.33332824707 -18.3333129883 0 -21.3333435059 rrcurveto
          endchar
        </CharString>
        <CharString name="exclamdown">
          -240 172 501 rmoveto
          -124 -604 124 hlineto
          20 752 rmoveto
          0 21.3333129883 -7.5 18.1666870117 -15 15 -15 15 -18.5 7.5 -22 0 -21.3333435059 0 -18.1666564941 -7.5 -15 -15 -15 -15 -7.5 -18.1666870117 0 -21.3333129883 0 -21.3333129883 7.5 -18.3333740234 15 -15.3333129883 15 -15.3333129883 18.1666564941 -7.66668701172 21.3333435059 0 rrcurveto
          22 0 18.5 7.66668701172 15 15.3333129883 15 15.3333129883 7.5 18.3333740234 0 21.3333129883 rrcurveto
          endchar
        </CharString>
        <CharString name="f">
          -151 234 657 rmoveto
          20.6666717529 -0.666687011719 23.3333282471 -11.3333129883 26 -22 rrcurveto
          48 67 rlineto
          -29.3333435059 26 -16.3333129883 14 -3.33334350586 2 -16 9.33331298828 -23.3333435059 4.66668701172 -30.6666564941 0 rrcurveto
          -96.6666717529 -48.3333282471 -65 -130 hvcurveto
          -53 -70 -90 70 -408 105 408 124 90 -124 vlineto
          0 4 -0.33332824707 9 -0.66667175293 14 -0.66667175293 14 -0.33332824707 11.3333129883 0 8.66668701172 0 66 14.3333282471 32.6666870117 28.6666717529 -0.666687011719 rrcurveto
          endchar
        </CharString>
        <CharString name="fi">
          9 247 657 rmoveto
          20.6666564941 -0.666687011719 28 -12 35.3333435059 -23.3333129883 rrcurveto
          56 73 rlineto
          -39.3333435059 25.3333129883 -21.3333129883 13.6666870117 -3.33334350586 2 -19.3333435059 8.66668701172 -25.3333129883 4.33331298828 -31.3333435059 0 -58.6666717529 0 -43.3333282471 -24.6666870117 -28 -49.3333129883 -19.3333435059 -35.3333129883 -9.66665649414 -40.6666870117 0 -46 rrcurveto
          -54 -70 -90 70 -408 105 408 128 -408 111 498 -238 vlineto
          -1.33332824707 42.6666870117 1 31.6666259766 3.33332824707 20.6666870117 7.33332824707 43.3333129883 16.6666717529 21.3333740234 26 -0.666687011719 rrcurveto
          endchar
        </CharString>
        <CharString name="five">
          25 64 rmoveto
          36 -58.6666717529 64 -29.3333282471 92 0 78.6666564941 0 63 24.6666717529 47.3333435059 49.3333282471 41.3333435059 43.3333435059 20.6666564941 50.9999847412 0 58.6666717529 0 66 -20 53.6666564941 -40 41.3333435059 -38 38.6666564941 -47 19.3333435059 -56 0 -27.3333282471 0 -27.3333435059 -8.66665649414 -27.3333282471 -17.3333435059 rrcurveto
          -22 -14 -17.3333282471 -16.3333435059 -12.6666717529 -18.6666564941 rrcurveto
          186 290 111 -370 -370 vlineto
          82 -20 rlineto
          12.6666717529 18.6666564941 17.6666564941 16.1666870117 22.6666717529 13.6666564941 22.6666717529 13.6666564941 18 6.83334350586 13.3333282471 0 76 0 38 -38.6666564941 0 -77.3333435059 0 -32 -11.6666564941 -31.3333282471 -23.3333435059 -30.6666717529 -26.6666564941 -34.6666564941 -32.3333435059 -17.3333435059 -38 0 -59.3333282471 0 -50.3333282471 25.6666564941 -41.3333435059 51.3333435059 rrcurveto
          endchar
        </CharString>
        <CharString name="fl">
          54 355 640 rmoveto
          -45.3333435059 52 -42.6666564941 26 -40 0 rrcurveto
          -92.6666717529 -46.3333282471 -65.3333129883 -130.666687012 hvcurveto
          -24 -70 -90 70 -408 105 408 89 90 -89 61 vlineto
          46 18.3333282471 23 36.6666717529 vhcurveto
          42.6666564941 0 35.6666870117 -15.3333129883 28.6666564941 -30.6666870117 rrcurveto
          -581 110 698 -110 vlineto
          endchar
        </CharString>
        <CharString name="florin">
          -114 267 606 rmoveto
          19.3333435059 0 28 -12 36.6666564941 -24 rrcurveto
          59 84 rlineto
          -38 26.6666870117 -20.6666564941 14.3333129883 -3.33334350586 2 -19.3333435059 9.33331298828 -25 4.66668701172 -30.6666564941 0 -99.3333282471 -1.33331298828 -56.6666717529 -71 -14 -140.666687012 rrcurveto
          -70 -1 -10 -101 72 1 -47 -520 108 1 46 521 123 0 9 100 -126 0 rlineto
          6 71.3333129883 19.6666717529 35.6666870117 33.3333282471 0 rrcurveto
          endchar
        </CharString>
        <CharString name="four">
          137 230 rmoveto
          148 234 0 -234 rlineto
          109 -230 rmoveto
          141 87 89 -87 421 -94 vlineto
          -284 -434 0 -76 269 0 0 -141 rlineto
          endchar
        </CharString>
        <CharString name="fraction">
          62 53 126 rmoveto
          104 -66 363 468 -104 66 rlineto
          endchar
        </CharString>
        <CharString name="g">
          36 427 323 rmoveto
          0 13.3333435059 -5 23 -10 32.6666564941 rrcurveto
          99 113 hlineto
          -131 -59 rlineto
          -30.6666564941 38.6666564941 -46.6666870117 19.3333435059 -62.6666564941 0 -54 0 -45.3333282471 -18.3333435059 -36.6666717529 -36.6666564941 -36.6666564941 -36.6666564941 -18.3333435059 -43 0 -49.3333435059 0 -58.6666564941 26.3333435059 -50.0000152588 52.6666564941 -41.3333282471 -2.66665649414 -3.33332824707 -16.3333435059 -16.3333435059 -30 -29.3333282471 -23.3333282471 -22 -11.6666717529 -17.6666564941 0 -13.3333435059 rrcurveto
          0 -19.3333282471 7.33332824707 -16.6666717529 14.6666717529 -14 16.6666564941 -16 21.3333435059 -8 26 0 -59.3333435059 -38 -29.6666564941 -37 0 -36 0 -38.6666717529 15.3333282471 -30 30.6666717529 -21.3333282471 30.6666564941 -21.3333282471 40.3333435059 -10.6666717529 50 0 54 0 53 13 52 26 rrcurveto
          68 34 34 46.6666564941 0 59.3333435059 0 60 -20.6666564941 38 -41.3333435059 16 -20 8 -45.3333435059 4 -70.6666564941 0 -43.3333282471 0 -24 0.333343505859 -4.66667175293 0.666656494141 -30.6666717529 4 -15.3333282471 12.3333435059 0 20.6666564941 0 3.33334350586 4 6 8 8.66665649414 rrcurveto
          11.3333282471 12 7 8 2.66667175293 4 20 -6 18.6666717529 -3 17.3333282471 0 52.6666564941 0 44 17.6666717529 35.3333435059 35.3333282471 35.3333435059 35.3333282471 17.6666564941 44.3333282471 0 53.3333435059 rrcurveto
          -269 -3 rmoveto
          0 26 6.66667175293 23.6666564941 13.3333282471 21.3333435059 15.3333282471 24.6666564941 20 12.3333435059 24.6666717529 0 24 0 21 -12 18 -24 16 -22 8 -22.3333435059 0 -22.6666564941 0 -30 -8 -26.1666564941 -16 -22.3333435059 -16 -22.3333282471 -19.6666564941 -11.1666717529 -23.3333435059 0 rrcurveto
          -26 0 -21 12.3333282471 -16 24.6666717529 -14 21.3333435059 -7 23.3333129883 0 25.3333435059 rrcurveto
          32 -336 rmoveto
          94 hlineto
          29.3333435059 0 20 -2.33332824707 10.6666564941 -4.66667175293 14.6666564941 -6.66667175293 7.33334350586 -13.3333282471 0 -20 0 -24 -14 -23.3333435059 -28 -22.6666564941 -28 -22.6666717529 -30.3333435059 -11.3333282471 -32.6666564941 0 -34 0 -23.3333282471 6.66667175293 -12.6666717529 13.3333282471 -10 10.6666717529 -5 17.9999847412 0 25.3333435059 rrcurveto
          0 16 5.33332824707 16.3333282471 10.6666717529 16.6666717529 10.6666717529 16.6666717529 8.66665649414 9.33332824707 6.66667175293 2 rrcurveto
          endchar
        </CharString>
        <CharString name="germandbls">
          74 178 61 rmoveto
          29.3333282471 -34.6666717529 23.6666717529 -21.6666564941 18 -8.66667175293 15.3333435059 -7.33332824707 26.6666564941 -3.66667175293 38 0 46 0 40.5 16.5 35 33 35 33 17.5 40.1666564941 0 47.3333435059 0 38 -7.66665649414 31.3333282471 -15.3333435059 24.6666717529 -22 35.3333435059 -37.3333435059 26 -52.6666564941 16.6666564941 rrcurveto
          -31.3333435059 10 -17.6666564941 6 -4 2 -15.3333435059 7.33334350586 -7.66665649414 9.66665649414 0 12 0 32.6666564941 15.3333435059 16.3333435059 30.6666564941 0 16 0 27.6666564941 -7.33334350586 39.3333435059 -14.6666564941 22.6666564941 39.3333435059 11.3333435059 42 0 44.6666564941 0 58 -16.6666564941 45.8333129883 -33.3333435059 33.6666870117 rrcurveto
          -33.3333435059 33.6666870117 -46.3333129883 16.8333129883 -59.3333435059 0 -70 0 -54 -21.3333129883 -38 -42.6666870117 -34.6666564941 -38.6666870117 -17.3333435059 -50.3333129883 0 -62 rrcurveto
          -501 110 501 vlineto
          0 32.6666870117 9.83332824707 27.3333129883 19.6666717529 22 19.6666717529 22 23.1666564941 11 26.6666717529 0 26.6666564941 0 23 -4.66668701172 19.3333435059 -9.33331298828 22 -10 11 -12.6666870117 0 -15.3333129883 0 -2 0.333343505859 -5.66668701172 0.666656494141 -9.33331298828 0.666656494141 -9.33331298828 0.333343505859 -7.33337402344 0 -5.33331298828 rrcurveto
          0 -7.33331298828 -1 -5.33334350586 -2 -3.33334350586 -15.3333435059 6 -15 3 -14.6666564941 0 -37.3333435059 0 -32.3333282471 -17.6666564941 -27.3333282471 -35.3333435059 -23.3333282471 -30 -11.6666717529 -28.3333435059 0 -26.6666564941 0 -80 37.3333282471 -52.3333282471 74.6666717529 -24.6666717529 32 -10.6666717529 20 -7.33332824707 8 -4 rrcurveto
          22.6666564941 -12.6666717529 11.3333435059 -17 0 -21.3333282471 0 -16.6666717529 -4.33334350586 -14.3333282471 -8.66665649414 -12 -11.3333435059 -15.3333435059 -14.6666564941 -7.66665649414 -18 0 -22.6666564941 0 -15.6666870117 1.66665649414 -8.66665649414 3.33334350586 -20 7.33334350586 -19.6666717529 17.3333129883 -19.3333282471 27.3333435059 rrcurveto
          endchar
        </CharString>
        <CharString name="grave">
          -146 324 626 rmoveto
          -104 callsubr
          endchar
        </CharString>
        <CharString name="greater">
          -110 -14 46 rmoveto
          121 -4 236 247 -236 240 -123 -4 203 -240 rlineto
          endchar
        </CharString>
        <CharString name="greaterequal">
          -225 3 116 rmoveto
          101 -5 146 171 -146 166 -101 -4 123 -165 rlineto
          -105 -202 rmoveto
          -73 221 73 vlineto
          endchar
        </CharString>
        <CharString name="guillemotleft">
          -85 419 126 rmoveto
          -131 160 131 161 -107 4 -156 -162 156 -167 rlineto
          -51 4 rmoveto
          -130 160 130 161 -107 4 -155 -162 155 -167 rlineto
          endchar
        </CharString>
        <CharString name="guillemotright">
          -82 141 126 rmoveto
          109 -4 154 167 -154 162 -109 -4 132 -161 rlineto
          -290 -160 rmoveto
          109 -4 154 167 -154 162 -108 -4 131 -161 rlineto
          endchar
        </CharString>
        <CharString name="guilsinglleft">
          -156 297 126 rmoveto
          -124 160 124 161 -102 4 -146 -162 146 -167 rlineto
          endchar
        </CharString>
        <CharString name="guilsinglright">
          -158 30 126 rmoveto
          101 -4 146 167 -146 162 -101 -4 123 -161 rlineto
          endchar
        </CharString>
        <CharString name="h">
          37 342 326 rmoveto
          -326 107 339 vlineto
          0 50 -17 42 -34 34 -32 30.6666564941 -35.3333435059 15.3333435059 -38.6666564941 0 -44 0 -40.6666717529 -35 -37.3333282471 -70 rrcurveto
          290 -107 -696 107 319 vlineto
          0 10.6666564941 10.6666717529 18 21.3333282471 25.3333435059 26.6666717529 31.3333435059 27.9999847412 15.6666564941 29.3333435059 0 rrcurveto
          37.3333435059 18.6666564941 -31.3333435059 -62.6666564941 hvcurveto
          endchar
        </CharString>
        <CharString name="hungarumlaut">
          -113 176 561 rmoveto
          100 0 111 114 -101 0 rlineto
          -268 -114 rmoveto
          101 0 110 114 -100 0 rlineto
          endchar
        </CharString>
        <CharString name="hyphen">
          -95 50 360 rmoveto
          -93 280 93 vlineto
          endchar
        </CharString>
        <CharString name="i">
          -242 43 657 rmoveto
          0 -21.3333129883 7.33332824707 -17.8333740234 14.6666717529 -14.3333129883 14.6666564941 -14.3333129883 17.3333435059 -7.16668701172 20 0 20 0 17.1666717529 7.16668701172 14.3333282471 14.3333129883 14.3333282471 14.3333129883 7.16667175293 17.8333740234 0 21.3333129883 0 21.3333129883 -7.33332824707 17.6666870117 -14.6666717529 14 -14.6666717529 14 -17 7 -19.3333282471 0 rrcurveto
          -20 0 -17.3333435059 -7 -14.6666564941 -14 -14.6666717529 -14 -7.33332824707 -17.6666870117 0 -21.3333129883 rrcurveto
          20 -162 rmoveto
          -99 callsubr
          endchar
        </CharString>
        <CharString name="iacute">
          -241 -10 626 rmoveto
          42 -72 214 83 -42 78 rlineto
          -141 -220 rmoveto
          -99 callsubr
          endchar
        </CharString>
        <CharString name="icircumflex">
          -265 63 495 rmoveto
          -99 callsubr
          -195 26 rmoveto
          -80 callsubr
          endchar
        </CharString>
        <CharString name="idieresis">
          -268 63 495 rmoveto
          -99 callsubr
          -15 133 rmoveto
          -73 callsubr
          -210 hmoveto
          0 -18.6666870117 5.66667175293 -16 11.3333282471 -13.3333129883 12.6666717529 -16 17.6666564941 -8 22.6666717529 0 22 0 17.6666717529 8 13.3333282471 16 11.3333435059 14 5.66665649414 16 0 18 0 17.3333129883 -5.66665649414 15.6666870117 -11.3333435059 14 -13.3333282471 16.6666870117 -17.6666717529 8.33331298828 -22 0 rrcurveto
          -22.6666717529 0 -17.6666564941 -8.33331298828 -12.6666717529 -16.6666870117 -11.3333282471 -14 -5.66667175293 -15.6666870117 0 -17.3333129883 rrcurveto
          endchar
        </CharString>
        <CharString name="igrave">
          -226 63 495 rmoveto
          -99 callsubr
          94 131 rmoveto
          -104 callsubr
          endchar
        </CharString>
        <CharString name="infinity">
          61 268 304 rmoveto
          28.6666564941 -26.6666564941 35.6666870117 -13.3333435059 42.6666564941 0 41.3333435059 0 35.5 13.1666564941 29.6666564941 26.3333435059 29.6666564941 26.3333435059 14.8333435059 31.5 0 36.6666564941 0 36.6666564941 -14.8333435059 31.3333435059 -29.6666564941 26 -29.6666564941 26 -35.5 13 -41.3333435059 0 -42 0 -35.6666564941 -13 -29.3333435059 -26 rrcurveto
          -30 26 -35.6666717529 13 -41.3333282471 0 -42 0 -35.8333435059 -13 -29.6666564941 -26 -29.6666717529 -26 -14.8333282471 -31.3333435059 0 -36.6666564941 0 -37.3333435059 14.8333282471 -31.6666564941 29.6666717529 -26 29.6666564941 -26 35.8333435059 -13 42 0 41.3333282471 0 35.6666717529 13.3333435059 30 26.6666564941 rrcurveto
          44 95 rmoveto
          0 14.6666564941 6 12.8333435059 12 11 12 11 15 5.5 18 0 18 0 15 -5.5 12 -11 12 -11 6 -12.8333435059 0 -14.6666564941 0 -15.3333435059 -6 -13.1666564941 -12 -11 -12 -11 -15 -5.5 -18 0 rrcurveto
          -18 0 -15 5.5 -12 11 -12 11 -6 13.1666564941 0 15.3333435059 rrcurveto
          -215 hmoveto
          0 14.6666564941 6.16665649414 12.8333435059 12.3333435059 11 12.3333435059 11 15.1666564941 5.5 18 0 17.3333282471 0 14.8333435059 -5.5 12.3333282471 -11 12.3333282471 -11 6.16667175293 -12.8333435059 0 -14.6666564941 0 -17.3333435059 -6.33332824707 -13.5 -12.6666717529 -9.66665649414 -12.6666717529 -9.66665649414 -14.6666564941 -4.83334350586 -16.6666717529 0 rrcurveto
          -17.3333282471 0 -15 4.83334350586 -12.6666717529 9.66665649414 -12.6666564941 9.66665649414 -6.33334350586 13.5 0 17.3333435059 rrcurveto
          endchar
        </CharString>
        <CharString name="integral">
          -172 225 595 rmoveto
          10 0 16.3333282471 -9.33331298828 22.6666717529 -18.6666870117 rrcurveto
          51 110 rlineto
          -40 24 -32.6666717529 12 -25.3333282471 0 -58 0 -43.3333435059 -19.6666870117 -28.6666564941 -39.3333129883 -24 -33.3333129883 -12 -43.3333740234 0 -53.3333129883 0 -58 16 -83.6666564941 32 -109.333343506 30.6666717529 -104.666671753 15.3333282471 -64.6666717529 0 -24.6666564941 0 -68.6666717529 -13.6666717529 -34.3333282471 -27.3333282471 0 rrcurveto
          -15.3333435059 0 -23.6666564941 9.33332824707 -32 18.6666717529 rrcurveto
          -25 -120 rlineto
          48 -16 31 -8 14 0 58.6666717529 0 43 22.3333435059 27.3333282471 44.6666564941 21.3333435059 34.6666717529 10.6666564941 45.3333282471 0 56 0 58 -15.6666564941 85 -31.3333435059 112 -30 107.333343506 -15 68.3333129883 0 29.3333435059 0 48 15 24 30 0 rrcurveto
          endchar
        </CharString>
        <CharString name="j">
          -242 194 658 rmoveto
          0 21.3333129883 -7.33332824707 17.6666870117 -14.6666717529 14 -14.6666717529 14 -17.3333282471 7 -20 0 -20 0 -17.3333435059 -7 -14.6666564941 -14 -14.6666717529 -14 -7.33332824707 -17.6666870117 0 -21.3333129883 0 -21.3333129883 7.33332824707 -17.6666870117 14.6666717529 -14 14.6666564941 -14 17.3333435059 -7 20 0 rrcurveto
          20 0 17.3333282471 7 14.6666717529 14 14.6666717529 14 7.33332824707 17.6666870117 0 21.3333129883 rrcurveto
          -75 -829 rmoveto
          34.6666717529 24.6666717529 17.3333282471 38.6666717529 0 52.6666564941 rrcurveto
          550 -108 -508 vlineto
          0 -30.6666717529 -0.33332824707 -17 -0.66667175293 -3.33332824707 -5.33332824707 -28.6666564941 -30.6666717529 -22.6666870117 -56 -16.6666564941 rrcurveto
          38 -91 rlineto
          50 18 37 17.3333282471 24 16.6666717529 rrcurveto
          endchar
        </CharString>
        <CharString name="k">
          1 200 222 rmoveto
          179 -253 96 62 -217 244 184 196 -94 65 -178 -247 0 408 -107 0 0 -698 107 0 0 179 rlineto
          endchar
        </CharString>
        <CharString name="l">
          -241 64 698 rmoveto
          -698 106 698 vlineto
          endchar
        </CharString>
        <CharString name="less">
          -109 359 46 rmoveto
          -201 239 201 240 -123 4 -236 -240 237 -247 rlineto
          endchar
        </CharString>
        <CharString name="lessequal">
          -225 261 116 rmoveto
          -124 163 124 165 -102 4 -146 -166 146 -171 rlineto
          -138 -34 rmoveto
          -73 221 73 vlineto
          endchar
        </CharString>
        <CharString name="logicalnot">
          138 443 225 rmoveto
          -197 115 315 -470 -118 vlineto
          endchar
        </CharString>
        <CharString name="lozenge">
          101 12 333 rmoveto
          263 -255 262 255 -262 256 rlineto
          -116 -257 rmoveto
          119 116 118 -116 -118 -115 rlineto
          endchar
        </CharString>
        <CharString name="lslash">
          -193 179 hmoveto
          -1 348 66 37 -1 115 -65 -36 0 178 -109 0 0 -240 -53 -30 -1 -116 54 31 0 -287 rlineto
          endchar
        </CharString>
        <CharString name="m">
          301 601 339 rmoveto
          -339 112 344 vlineto
          0 42.6666564941 -13 37.6666870117 -26 32.6666564941 -28.6666870117 36.6666564941 -37 18.3333435059 -45.3333129883 0 -44 0 -47 -33.3333435059 -50 -66.6666564941 -10.6666564941 24.6666564941 -17.1666870117 22 -23.6666564941 19.3333435059 -23.6666564941 19.3333435059 -23.8333435059 9.66665649414 -24 0 -44 0 -43 -33.3333435059 -42 -66.6666564941 rrcurveto
          89 -107 -496 107 306 vlineto
          0 17.3333435059 12 22.6666564941 24 28 24 28 22 14 20 0 14.6666564941 0 13.5 -9.16665649414 12.3333435059 -18.3333435059 12.3333435059 -18.3333435059 6.16665649414 -21.5 0 -24.6666564941 rrcurveto
          -324 112 297 vlineto
          0 32 14.3333435059 29.6666564941 28.6666564941 27.3333435059 24 22.6666564941 20.3333129883 11.3333435059 16.6666870117 0 rrcurveto
          36 18 -27 -54 hvcurveto
          endchar
        </CharString>
        <CharString name="macron">
          -69 105 659 rmoveto
          -65 234 65 vlineto
          endchar
        </CharString>
        <CharString name="minus">
          23 52 348 rmoveto
          -63 394 63 vlineto
          endchar
        </CharString>
        <CharString name="mu">
          33 347 29 rmoveto
          14 -42 28.6666564941 -33.6666717529 43.3333435059 -25.3333282471 rrcurveto
          84 65 rlineto
          -15.3333435059 16.6666717529 -14 12.6666564941 -12.6666564941 8.66667175293 -18.6666564941 12 -9 28.6666564941 0.666656494141 45.3333435059 rrcurveto
          370 -110 -338 vlineto
          0 -15.3333282471 -8.33334350586 -16.8333282471 -16.6666564941 -18.3333435059 -16.6666564941 -18.3333435059 -17.6666870117 -9.16665649414 -18.6666564941 0 rrcurveto
          -59.3333282471 -29.6666717529 24.3333435059 48.6666564941 hvcurveto
          342 -103 -682 103 186 vlineto
          22.6666717529 -14.6666717529 24.6666564941 -7.33332824707 26.6666717529 0 31.3333435059 0 31 17 30.6666564941 34 rrcurveto
          endchar
        </CharString>
        <CharString name="n">
          37 342 320 rmoveto
          -98 callsubr
          endchar
        </CharString>
        <CharString name="nine">
          25 56 rmoveto
          57.3333435059 -54.6666717529 68.3333282471 -27.3333282471 79.3333282471 0 96.6666564941 0 70.3333435059 47 44 94 30.6666564941 66 15.3333435059 82.6666564941 0 99.3333435059 0 97.3333435059 -25.6666564941 74.9999694824 -51.3333435059 52.6666870117 -43.3333435059 45.3333129883 -53 22.6666870117 -62.6666564941 0 -67.3333282471 0 -54.6666717529 -21.8333129883 -42 -43.6666870117 rrcurveto
          -42 -43.6666870117 -21 -53.8333129883 0 -64 0 -62 21.3333282471 -51.3333435059 42.6666717529 -40.6666564941 39.3333435059 -38 46.9999847412 -19 54.6666717529 0 48.6666564941 0 48 28 47.3333435059 56 0 -61.3333282471 -9.33334350586 -51.6666717529 -18.6666564941 -42 -24 -54 -35.6666564941 -27 -47.3333435059 0 rrcurveto
          -30.6666717529 0 -26.1666564941 4.83334350586 -21.6666717529 9.66665649414 -21.6666717529 9.66665649414 -24.8333282471 17.5 -28 25.3333435059 rrcurveto
          47 299 rmoveto
          0 40.6666564941 11 33.5 22 26.3333435059 22 26.3333129883 28.6666717529 13.1666870117 35.3333282471 0 38.6666564941 0 30 -16 21.3333435059 -32 18 -27.3333435059 9 -33 0 -38.6666564941 0 -37.3333435059 -11.3333435059 -30.8333129883 -22.6666564941 -24.3333435059 -22.6666564941 -24.3333435059 -29.6666870117 -12.1666564941 -36.6666564941 0 rrcurveto
          -31.3333282471 0 -27 14.6666564941 -22.6666717529 29.3333435059 -21.3333282471 27.3333435059 -10.6666717529 30.6666564941 0 34 rrcurveto
          endchar
        </CharString>
        <CharString name="nonbreakingspace">
          -202 endchar
        </CharString>
        <CharString name="nonmarkingreturn">
          -202 endchar
        </CharString>
        <CharString name="notequal">
          -34 92 12 rmoveto
          88 -32 48 145 161 0 0 98 -129 0 15 43 114 0 0 98 -82 0 48 143 -89 32 -58 -175 -157 0 0 -98 125 0 rlineto
          -15 -43 -110 0 0 -98 78 0 rlineto
          endchar
        </CharString>
        <CharString name="ntilde">
          11 248 579 rmoveto
          -71 callsubr
          94 -259 rmoveto
          -98 callsubr
          endchar
        </CharString>
        <CharString name="numbersign">
          61 373 529 rmoveto
          72 8 0 83 -72 -7 1 69 -88 -11 0 -68 -37 -3 1 67 -88 -9 0 -68 -92 -10 0 -83 91 10 0 -35 -92 -10 rlineto
          0 -83 92 10 -1 -88 88 10 1 87 36 4 -1 -88 88 10 0 87 72 8 0 83 -71 -7 rlineto
          -124 -13 rmoveto
          0 34 36 4 0 -35 rlineto
          endchar
        </CharString>
        <CharString name="o">
          71 39 252 rmoveto
          -97 callsubr
          116 -6 rmoveto
          -96 callsubr
          endchar
        </CharString>
        <CharString name="oacute">
          68 168 626 rmoveto
          -84 callsubr
          -344 -463 rmoveto
          -97 callsubr
          116 -6 rmoveto
          -96 callsubr
          endchar
        </CharString>
        <CharString name="ocircumflex">
          68 145 521 rmoveto
          -80 callsubr
          -106 -357 rmoveto
          -97 callsubr
          116 -6 rmoveto
          -96 callsubr
          endchar
        </CharString>
        <CharString name="odieresis">
          68 315 628 rmoveto
          -69 callsubr
          -210 hmoveto
          0 -18.6666870117 5.66665649414 -16 11.3333435059 -13.3333129883 12.6666717529 -16 17.6666564941 -8 22.6666717529 0 22 0 17.6666717529 8 13.3333282471 16 11.3333282471 14 5.66667175293 16 0 18 0 17.3333129883 -5.66667175293 15.6666870117 -11.3333282471 14 -13.3333282471 16.6666870117 -17.6666717529 8.33331298828 -22 0 rrcurveto
          -22.6666717529 0 -17.6666564941 -8.33331298828 -12.6666717529 -16.6666870117 -11.3333435059 -14 -5.66665649414 -15.6666870117 0 -17.3333129883 rrcurveto
          -66 -376 rmoveto
          -97 callsubr
          116 -6 rmoveto
          -96 callsubr
          endchar
        </CharString>
        <CharString name="oe">
          558 209 246 rmoveto
          0 50 10.3333282471 41 20.6666717529 32 23.3333435059 36 33 18 42.6666564941 0 36.6666564941 0 28.6666870117 -17.6666564941 20.6666564941 -35.3333435059 19.3333435059 -31.3333435059 9.66665649414 -39.6666564941 0 -48 0 -48.6666717529 -10 -40.6666564941 -20 -32.6666717529 -22.6666564941 -35.3333435059 -31.3333435059 -17.6666564941 -40 0 rrcurveto
          -38.6666564941 0 -30.3333435059 17.3333435059 -22 34.6666564941 -20 32 -10 39.3333282471 0 46.6666717529 rrcurveto
          527 -178 rmoveto
          -67.3333129883 0 -35.6666870117 56.6666564941 -4 113.333343506 rrcurveto
          295 75 hlineto
          0 62 -18 48.3333435059 -36 34.6666564941 -32.6666870117 32.6666564941 -42.3333129883 16.3333435059 -52 0 -90.6666870117 0 -66.6666259766 -39 -42.6666870117 -78 -22 40.6666564941 -31.3333435059 31 -40.6666564941 21.3333435059 -36 19.3333435059 -38 9.66665649414 -40 0 -62 0 -54 -20 -46 -40 rrcurveto
          -56 -48 -28 -66.6666564941 0 -85.3333435059 0 -61.3333282471 14 -53.3333435059 28 -45.3333282471 42 -68.6666717529 67.6666717529 -34.3333282471 93.3333282471 0 92.6666564941 0 68 40 43.3333435059 80 18 -38 20.6666870117 -28 23.3333129883 -18 32 -24.6666717529 43 -12.3333282471 54 0 rrcurveto
          72.6666870117 0 65 26.6666717529 57.3333129883 53.3333282471 rrcurveto
          -62 80 rlineto
          -37.3333129883 -53.3333435059 -42 -26.6666564941 -46.6666870117 0 rrcurveto
          84 255 rmoveto
          -178 hlineto
          4.66668701172 70.6666564941 31.3333129883 35.3333435059 58 0 26.6666870117 0 21 -12 15.3333129883 -24 12.6666870117 -20 7 -23.3333435059 1.33331298828 -26.6666564941 rrcurveto
          endchar
        </CharString>
        <CharString name="ograve">
          68 387 556 rmoveto
          -85 callsubr
          -139 -394 rmoveto
          -97 callsubr
          116 -6 rmoveto
          -96 callsubr
          endchar
        </CharString>
        <CharString name="one">
          463 100 rmoveto
          -121 537 -232 -103 124 -434 -133 -100 362 hlineto
          endchar
        </CharString>
        <CharString name="oslash">
          71 416 549 rmoveto
          -108 34 -21 -71 -11 0 rlineto
          -59.3333282471 0 -52 -20 -44.6666717529 -40 -54 -48 -27 -66.6666564941 0 -85.3333435059 0 -40 6.33332824707 -37.6666717529 12.6666717529 -35.3333282471 17.3333435059 -50.6666564941 28 -38.0000152588 38.6666564941 -25.3333282471 rrcurveto
          -19 -65 107 -34 19 64 rlineto
          5.33332824707 -0.66667175293 8.66667175293 -0.33332824707 12 0 82.6666564941 0 62.3333435059 34 42 68 30 48.6666717529 15 53.6666564941 0 58.6666717529 0 104.666656494 -37.3333435059 75.3333435059 -74.6666564941 46 rrcurveto
          -132 -46 rmoveto
          -87 -293 rlineto
          -14 31.3333282471 -7 35.6666717529 0 40 0 46.6666564941 8.66667175293 40 17.3333282471 33.3333435059 19.3333282471 38.6666564941 27.3333435059 22 35.3333282471 5.33334350586 rrcurveto
          128 -181 rmoveto
          0 -49.3333282471 -9.66665649414 -42 -19.3333435059 -34.6666717529 -22 -38 -30 -19.3333435059 -38 -0.666656494141 rrcurveto
          92 308 rlineto
          18 -34.6666564941 9 -41.3333435059 0 -48 rrcurveto
          endchar
        </CharString>
        <CharString name="otilde">
          68 279 579 rmoveto
          -83 callsubr
          -240 -327 rmoveto
          -97 callsubr
          116 -6 rmoveto
          -96 callsubr
          endchar
        </CharString>
        <CharString name="p">
          42 170 28 rmoveto
          48 -34 34 -17 20 0 138.666656494 0 69.3333435059 94.6666564941 0 189.333343506 0 71.3333435059 -12 57.3333129883 -24 43.3333435059 -29.3333435059 53.3333435059 -46 26.6666564941 -62.6666564941 0 -27.3333435059 0 -27.3333282471 -10 -27.3333282471 -20 -27.3333282471 -20 -18 -23 -8.66667175293 -26 rrcurveto
          82 -107 -693 107 vlineto
          507 vmoveto
          6.66667175293 20 14 22.6666564941 21.3333282471 25.3333435059 23.3333282471 28.6666564941 19.6666717529 14.3333435059 16 0 37.3333435059 0 25.6666564941 -18.3333435059 14 -36.6666564941 10.6666564941 -26 5.33334350586 -39.3333435059 0 -52.6666564941 0 -45.3333282471 -6.66665649414 -39.3333435059 -13.3333435059 -33.3333282471 -16.6666564941 -41.3333435059 -23.6666870117 -20.6666564941 -30.6666564941 0 rrcurveto
          -27.3333282471 0 -34.3333435059 15.3333435059 -41.3333282471 30.6666564941 rrcurveto
          endchar
        </CharString>
        <CharString name="paragraph">
          32 338 hmoveto
          99 642 -99 hlineto
          -127 -642 rmoveto
          99 642 -101 hlineto
          -53.3333282471 0 -39.3333282471 -11.6666870117 -25.3333435059 -23.3333129883 -27.3333282471 -25.3333129883 -13.6666717529 -41.3333740234 0 -57.3333129883 -0.66667175293 -110.666656494 53.6666717529 -55.3333435059 108 0 rrcurveto
          endchar
        </CharString>
        <CharString name="parenleft">
          -157 46 323 rmoveto
          0 -157.333328247 38.6666564941 -155.333343506 77.3333435059 -153.333328247 rrcurveto
          83 43 rlineto
          -35.3333282471 105.333328247 -22 68.6666717529 -8.66667175293 32 -18.6666717529 72.6666717529 -9.33332824707 72.3333282471 0 72 0 118 30.6666717529 140.333312988 61.3333282471 162.666687012 rrcurveto
          -81 45 rlineto
          -77.3333435059 -146 -38.6666564941 -155.333343506 0 -164.666656494 rrcurveto
          endchar
        </CharString>
        <CharString name="parenright">
          -159 73 -100 rmoveto
          84 -43 rlineto
          74.6666717529 149.333328247 37.3333282471 156.333343506 0 163.333328247 0 166 -37.3333282471 154 -74.6666717529 142 rrcurveto
          -81 -43 rlineto
          60.6666717529 -160.666687012 30.3333282471 -141.999969482 0 -123.333343506 0 -71.3333282471 -9.33332824707 -71.6666717529 -18.6666717529 -72 -7.33332824707 -27.3333435059 -22.0000152588 -67.9999847412 -36.6666564941 -108.666671753 rrcurveto
          endchar
        </CharString>
        <CharString name="partialdiff">
          77 43 238 rmoveto
          0.66667175293 -67.3333282471 19.3333282471 -58.0000152588 38 -48.6666564941 42.6666717529 -54 56.3333282471 -27 70 0 89.3333435059 0 64 31 38.6666564941 62 32 50.6666564941 16 74.0000152588 0 97.3333282471 0 174.666656494 -38.6666564941 115.666656494 -77.3333435059 56.6666870117 -40 29.3333129883 -56 14.6666870117 -72 0 rrcurveto
          -50.6666717529 0 -51.9999847412 -8 -53.3333435059 -16 rrcurveto
          31 -113 rlineto
          50 22.6666870117 48 11.3333129883 46 0 40.6666564941 0 31.3333435059 -8.33331298828 22 -16.6666870117 9.33334350586 -6.66668701172 11.3333129883 -16 13.3333435059 -25.3333129883 11.3333435059 -23.3333435059 8.33331298828 -20.3333129883 5.33334350586 -17.3333435059 -35.3333435059 37.3333435059 -40.3333129883 18.6666564941 -45.3333435059 0 -70 0 -55.3333282471 -20.6666564941 -40.6666717529 -41.3333435059 rrcurveto
          -46 -46.6666564941 -22.6666717529 -69.3333435059 0.66667175293 -92 rrcurveto
          233 178 rmoveto
          47.3333435059 0 41.6666564941 -24.6666564941 36 -49.3333435059 3.33334350586 -24.6666564941 1.66665649414 -25.3333435059 0 -26 0 -120 -42 -60 -84 0 -35.3333282471 0 -28.6666717529 15.8333435059 -22 31.6666564941 -22 31.6666717529 -11 39.1666564941 0 46.6666717529 0 53.3333435059 10.3333282471 40.8333129883 20.6666717529 28.3333435059 rrcurveto
          20.6666717529 28.3333435059 28 14.1666564941 35.3333282471 0 rrcurveto
          endchar
        </CharString>
        <CharString name="percent">
          61 22 518 rmoveto
          0 -42 11 -32.6666564941 22 -23.3333435059 22 -23.3333435059 28.3333435059 -11.6666564941 34.6666564941 0 34.6666717529 0 28.3333282471 11.6666564941 22 23.3333435059 22 23.3333435059 11 32.6666564941 0 42 0 38 -11.1666717529 31.5 -22.3333282471 25 -22.3333282471 25 -28.1666717529 12.5 -34 0 rrcurveto
          -34 0 -28.1666564941 -12.5 -22.3333435059 -25 -22.3333282471 -25 -11.1666717529 -31.5 0 -38 rrcurveto
          -19 -564 rmoveto
          105 -36 361 678 -99 38 rlineto
          -100 -503 rmoveto
          0 -44 11.6666564941 -34.3333282471 23.3333435059 -24.6666717529 21.3333435059 -22.6666717529 28.6666564941 -11.3333282471 36 0 35.3333435059 0 28.6666564941 11.8333282471 22 23.6666717529 22 23.6666717529 11 33.8333282471 0 44 0 38 -11.3333435059 31.8333282471 -22.6666564941 25.6666717529 -22.6666564941 25.6666717529 -28.3333435059 12.8333282471 -34 0 rrcurveto
          -34.6666564941 0 -28.8333435059 -12.8333282471 -23 -25.6666717529 -23 -25.6666717529 -11.5 -31.8333282471 0 -38 rrcurveto
          -155 384 rmoveto
          29.3333129883 8 14.6666870117 16 16.6666717529 8.33332824707 -14.6666870117 -29.3333129883 -27.3333435059 -8 -13.6666564941 -16 -16.6666564941 -8.33334350586 13.6666564941 27.3333435059 vhcurveto
          251 -388 rmoveto
          30 8 15 16 16.6666564941 8.33334350586 -15 -30 -28 -8 -14 -16 -16.6666564941 -8.33334350586 14 28 vhcurveto
          endchar
        </CharString>
        <CharString name="period">
          -231 36 77 rmoveto
          -106 callsubr
          endchar
        </CharString>
        <CharString name="periodcentered">
          -239 41 413 rmoveto
          0 -26.6666564941 8.5 -23.1666870117 17 -19.6666564941 17 -19.6666564941 20.5 -9.83334350586 24 0 24.6666717529 0 20.5 9.83334350586 16.3333282471 19.6666564941 16.3333282471 19.6666564941 8.16667175293 23.1666870117 0 26.6666564941 0 27.3333435059 -8.16667175293 23.3333129883 -16.3333282471 19.3333435059 -16.3333282471 19.3333435059 -20.5 9.66665649414 -24.6666717529 0 rrcurveto
          -24 0 -20.5 -9.83334350586 -17 -19.6666564941 -17 -19.6666564941 -8.5 -23.1666870117 0 -26.6666564941 rrcurveto
          endchar
        </CharString>
        <CharString name="perthousand">
          411 598 124 rmoveto
          0 -42.6666564941 11.3333129883 -33.0000152588 22.6666870117 -23.3333282471 22.6666870117 -23.3333282471 29.3333129883 -11.6666717529 36 0 36 0 29.1666870117 11.5 22.3333129883 23 22.3333129883 23 11.1666870117 33.1666564941 0 43.3333435059 0 37.3333282471 -11.5 31.3333435059 -23 25.3333282471 -23 25.3333282471 -28.8333129883 12.6666717529 -34.6666870117 0 rrcurveto
          -34.6666870117 0 -29 -12.6666717529 -23.3333129883 -25.3333282471 -23.3333129883 -25.3333282471 -11.6666870117 -31.3333435059 0 -37.3333282471 rrcurveto
          -576 394 rmoveto
          0 -42 11.3333282471 -32.6666564941 22.6666717529 -23.3333435059 22.6666564941 -23.3333435059 29 -11.6666564941 35.3333435059 0 36 0 29.3333282471 11.6666564941 22.6666717529 23.3333435059 22.6666717529 23.3333435059 11.3333282471 32.6666564941 0 42 0 38 -11.5 31.5 -23 25 -23 25 -29.1666717529 12.5 -35.3333282471 0 rrcurveto
          -34.6666564941 0 -28.8333435059 -12.6666870117 -23 -25.3333129883 -23 -25.3333129883 -11.5 -31.3333740234 0 -37.3333129883 rrcurveto
          311 -394 rmoveto
          0 -42.6666564941 11.3333435059 -33.0000152588 22.6666564941 -23.3333282471 22.6666564941 -23.3333282471 29.6666870117 -11.6666717529 36.6666564941 0 36 0 29.1666870117 11.5 22.3333129883 23 22.3333129883 23 11.1666870117 33.1666564941 0 43.3333435059 0 37.3333282471 -11.5 31.3333435059 -23 25.3333282471 -23 25.3333282471 -28.8333435059 12.6666717529 -34.6666564941 0 rrcurveto
          -34.6666564941 0 -29.1666870117 -12.6666717529 -23.6666564941 -25.3333282471 -23.6666564941 -25.3333282471 -11.8333435059 -31.3333435059 0 -37.3333282471 rrcurveto
          -310 -170 rmoveto
          108 -36 373 678 -102 38 rlineto
          293 -513 rmoveto
          29.3333282471 8 14.6666717529 16 vhcurveto
          8 0 6.66668701172 -5.66667175293 5.33331298828 -11.3333282471 4 -8.66667175293 2 -9 0 -9.33332824707 rrcurveto
          -28 -8.33331298828 -14 -16.6666870117 -16.6666870117 -8.33331298828 14 28 vhcurveto
          -577 394 rmoveto
          29.3333129883 8 14.6666870117 16 17.3333282471 8.66667175293 -14.6666870117 -29.3333129883 -27.3333435059 -8.33332824707 -13.6666564941 -16.6666717529 -16.6666564941 -8.33334350586 13.6666564941 27.3333435059 vhcurveto
          313 -394 rmoveto
          29.3333282471 8 14.6666717529 16 vhcurveto
          8 0 6.66665649414 -5.66667175293 5.33334350586 -11.3333282471 4 -8.66667175293 2 -9 0 -9.33332824707 rrcurveto
          -28 -8.33334350586 -14 -16.6666564941 -16.6666564941 -8.33334350586 14 28 vhcurveto
          endchar
        </CharString>
        <CharString name="pi">
          43 346 410 rmoveto
          -410 116 508 -393 -98 37 -410 116 410 vlineto
          endchar
        </CharString>
        <CharString name="plus">
          23 295 96 rmoveto
          170 151 94 -151 161 -92 -161 -151 -94 151 -170 vlineto
          endchar
        </CharString>
        <CharString name="plusminus">
          26 295 89 rmoveto
          171 151 95 -151 162 -93 -162 -150 -95 150 -171 vlineto
          -137 -40 rmoveto
          -87 376 87 vlineto
          endchar
        </CharString>
        <CharString name="product">
          120 388 hmoveto
          123 642 -388 -642 123 529 142 hlineto
          endchar
        </CharString>
        <CharString name="q">
          36 338 450 rmoveto
          -28.6666564941 22.6666564941 -21 14.3333435059 -13.3333435059 6 -20.6666717529 10 -25.6666564941 5 -30.6666717529 0 -49.3333282471 0 -40.3333282471 -30.6666564941 -31.3333435059 -61.3333435059 -26.6666717529 -52 -13.3333282471 -54.6666564941 0 -57.3333435059 0 -78.6666717529 14.6666717529 -64.3333282471 29.3333282471 -50 31.3333435059 -54.6666717529 43.6666564941 -27.3333282471 56 0 rrcurveto
          16.6666717529 0 21.3333282471 7.66667175293 26 15.3333282471 6.66665649414 4 20.6666870117 14.3333282471 34.6666564941 24.6666717529 rrcurveto
          -240 107 693 -107 vlineto
          -93 -74 rmoveto
          17.3333435059 0 18.3333129883 -9 19.3333435059 -18 19.3333435059 -18 12.6666564941 -18 6 -18 rrcurveto
          -203 vlineto
          -2.66665649414 -2 -16.6666870117 -15 -30.6666564941 -28 -20 -18.6666564941 -14.6666717529 -9.33334350586 -9.33332824707 0 -26.6666717529 0 -22 17.6666564941 -17.3333282471 35.3333435059 -17.3333282471 35.3333282471 -8.66667175293 41.6666717529 0 48 0 118.666656494 31 59.6666870117 62 0.666656494141 rrcurveto
          endchar
        </CharString>
        <CharString name="question">
          71 183 60 rmoveto
          0 -20.6666717529 7.33332824707 -17.3333282471 14.6666717529 -14 14.6666717529 -14 18 -7 21.3333282471 0 22 0 18.6666564941 7 15.3333435059 14 15.3333435059 14 7.66665649414 17.3333282471 0 20.6666717529 0 20.6666564941 -7.66665649414 17.5 -15.3333435059 14.3333435059 -15.3333435059 14.3333435059 -18.6666564941 7.16665649414 -22 0 rrcurveto
          -21.3333282471 0 -18 -7.33334350586 -14.6666717529 -14.6666564941 -14.6666717529 -14.6666564941 -7.33332824707 -17.3333435059 0 -20 rrcurveto
          199 296 rmoveto
          31.3333435059 23.3333435059 21.6666564941 21.3333129883 12 19.3333435059 16 24.6666564941 8 29.6666870117 0 34.6666564941 0 54 -16.3333435059 43.3333129883 -32.6666564941 32.6666870117 -36 34.6666870117 -50.6666564941 17.3333129883 -65.3333435059 0 -53.3333282471 0 -42 -11.5 -30.6666717529 -23 -30.6666564941 -23 -27 -39.1666870117 -23.3333435059 -55.3333129883 rrcurveto
          94 -39 rlineto
          24 70 38.6666717529 35 53.3333282471 0 21.3333435059 0 18.6666564941 -9.83331298828 16 -19.6666870117 16 -19.6666870117 8 -22.1666259766 0 -24.6666870117 0 -28 -15.6666564941 -26.6666564941 -31.3333435059 -25.3333435059 -42 -34 -27 -25.6666564941 -12 -17.3333435059 -14.6666717529 -21.3333435059 -7.33332824707 -28 0 -34.6666564941 rrcurveto
          0 4 -0.66667175293 -13.6666564941 -1.33332824707 -31.3333435059 -1.33332824707 -20 0.666656494141 -16.3333282471 2.66667175293 -12.6666717529 rrcurveto
          98 hlineto
          0 38.6666717529 1.66665649414 24.3333282471 3.33334350586 10 14.6666564941 43.3333435059 25.3333435059 35 36 26.6666564941 rrcurveto
          endchar
        </CharString>
        <CharString name="questiondown">
          -16 166 333 rmoveto
          -9.33332824707 -40 -18.6666717529 -30.6666564941 -28 -21.3333435059 -50.6666717529 -38.6666717529 -25.3333282471 -53.3333282471 0 -68 0 -46.6666717529 15.6666717529 -41.3333282471 31.3333282471 -36 34.6666564941 -40 45.3333435059 -20 56 0 48 0 39.6666564941 13.3333435059 31.3333435059 26.6666564941 29.3333435059 25.3333282471 25.6666564941 40.6666717529 22 56 rrcurveto
          -95 50 rlineto
          -22.6666564941 -70 -35 -35 -47.3333435059 0 -20.6666717529 0 -17.1666564941 6.66667175293 -13.6666717529 13.3333282471 -13.6666717529 13.3333282471 -6.83332824707 18.6666717529 0 24 0 17.3333435059 8 17.6666564941 16 18 0.66667175293 0 14.6666564941 13.3333282471 28.6666717529 26.6666717529 50.6666564941 46.6666717529 25.3333435059 73.9999847412 0 101.333343506 rrcurveto
          0 31.3333435059 -2.66665649414 31.3333129883 -5.33334350586 31.3333435059 rrcurveto
          -107 hlineto
          6 -66 -1.33332824707 -52 -8.66667175293 -38 rrcurveto
          129 275 rmoveto
          0 20.6666870117 -6.83334350586 17.3333129883 -13.6666564941 14 -13.6666564941 14 -16.5000152588 7 -19.3333282471 0 -19.3333282471 0 -16.6666717529 -7.16668701172 -14 -14.3333129883 -14 -14.3333129883 -7 -17.1666870117 0 -20 0 -20.6666870117 7 -17.5 14 -14.3333129883 14 -14.3333129883 16.6666717529 -7.16668701172 19.3333282471 0 rrcurveto
          19.3333282471 0 16.5000152588 7.16668701172 13.6666564941 14.3333129883 13.6666564941 14.3333129883 6.83334350586 17.5 0 20.6666870117 rrcurveto
          endchar
        </CharString>
        <CharString name="quotedbl">
          -146 190 645 rmoveto
          95 0 -39 -220 -34 0 rlineto
          -163 220 rmoveto
          94 0 -39 -220 -33 0 rlineto
          endchar
        </CharString>
        <CharString name="quotedblbase">
          -58 117 -117 rmoveto
          16 22.6666564941 15.3333282471 31.0000152588 14.6666717529 39.3333282471 16 42 8 33 0 24 rrcurveto
          -105 hlineto
          -2.66665649414 -50.6666717529 -1.66668701172 -28.6666564941 -0.666656494141 -6.66667175293 -4.66665649414 -34.6666717529 -8.66667175293 -30.9999847412 -12.6666717529 -27.3333435059 rrcurveto
          266 -13 rmoveto
          16 22.6666564941 15.3333435059 31.0000152588 14.6666564941 39.3333282471 16 42 8 33 0 24 rrcurveto
          -105 hlineto
          -2.66665649414 -50.6666717529 -1.66668701172 -28.6666564941 -0.666656494141 -6.66667175293 -4.66665649414 -34.6666717529 -8.66668701172 -30.9999847412 -12.6666564941 -27.3333435059 rrcurveto
          endchar
        </CharString>
        <CharString name="quotedblleft">
          -46 321 675 rmoveto
          -16.6666564941 -23.3333129883 -15.3333435059 -29.3333740234 -14 -35.3333129883 -16 -38.6666870117 -8 -31.3333129883 0 -24 rrcurveto
          105 hlineto
          2.66665649414 50.6666870117 1.66668701172 28.6666259766 0.666656494141 6.66668701172 4.66665649414 34.6666870117 8.66668701172 31 12.6666564941 27.3333129883 rrcurveto
          -266 3 rmoveto
          -16.6666564941 -23.3333129883 -15.3333435059 -29.3333740234 -14 -35.3333129883 -16 -38.6666870117 -8 -31.3333129883 0 -24 rrcurveto
          105 hlineto
          2.66667175293 50.6666870117 1.66665649414 28.6666259766 0.66667175293 6.66668701172 4.66667175293 34.6666870117 8.66665649414 31 12.6666717529 27.3333129883 rrcurveto
          endchar
        </CharString>
        <CharString name="quotedblright">
          -46 117 483 rmoveto
          16 22.6666564941 15.3333282471 31.0000305176 14.6666717529 39.3333129883 16 42 8 33 0 24 rrcurveto
          -105 hlineto
          -2.66665649414 -50.6666870117 -1.66668701172 -28.6666259766 -0.666656494141 -6.66668701172 -4.66665649414 -34.6666870117 -8.66667175293 -31 -12.6666717529 -27.3333129883 rrcurveto
          266 -13 rmoveto
          16 22.6666564941 15.3333435059 31.0000305176 14.6666564941 39.3333129883 16 42 8 33 0 24 rrcurveto
          -105 hlineto
          -2.66665649414 -50.6666870117 -1.66668701172 -28.6666259766 -0.666656494141 -6.66668701172 -4.66665649414 -34.6666870117 -8.66668701172 -31 -12.6666564941 -27.3333129883 rrcurveto
          endchar
        </CharString>
        <CharString name="quoteleft">
          -337 71 675 rmoveto
          -16.6666717529 -23.3333129883 -15.3333282471 -29.3333740234 -14 -35.3333129883 -16 -38.6666870117 -8 -31.3333129883 0 -24 rrcurveto
          105 hlineto
          2.66665649414 50.6666870117 1.66668701172 28.6666259766 0.666656494141 6.66668701172 4.66665649414 34.6666870117 8.66668701172 31 12.6666564941 27.3333129883 rrcurveto
          endchar
        </CharString>
        <CharString name="quoteright">
          -337 67 493 rmoveto
          16 22.6666870117 15.3333435059 31 14.6666564941 39.3333129883 16 42 8 33 0 24 rrcurveto
          -105 hlineto
          -2.66667175293 -50.6666870117 -1.66665649414 -28.6666259766 -0.66667175293 -6.66668701172 -4.66667175293 -34.6666870117 -8.66665649414 -31 -12.6666717529 -27.3333129883 rrcurveto
          endchar
        </CharString>
        <CharString name="quotesinglbase">
          -261 67 -107 rmoveto
          16 22.6666564941 15.3333435059 31.0000152588 14.6666564941 39.3333282471 16 42 8 33 0 24 rrcurveto
          -105 hlineto
          -2.66667175293 -50.6666717529 -1.66665649414 -28.6666564941 -0.66667175293 -6.66667175293 -4.66667175293 -34.6666717529 -8.66665649414 -30.9999847412 -12.6666717529 -27.3333435059 rrcurveto
          endchar
        </CharString>
        <CharString name="quotesingle">
          -281 50 646 rmoveto
          94 0 -36 -233 -29 0 rlineto
          endchar
        </CharString>
        <CharString name="r">
          -137 250 384 rmoveto
          16.6666564941 0.666656494141 10 0 3.33334350586 -0.666656494141 6 -1.33334350586 8.66665649414 -4 11.3333435059 -6.66665649414 rrcurveto
          12 124 rlineto
          -16 6.66665649414 -20.6666564941 3.33334350586 -25.3333435059 0 -15.3333282471 0 -16.6666717529 -10.6666564941 -18 -21.3333435059 -15.3333282471 -18.6666564941 -12 -19.6666870117 -8.66667175293 -20.6666564941 rrcurveto
          81 -107 -496 107 312 vlineto
          0 10 8 13.6666564941 16 17.3333435059 18 20 18.6666717529 10.3333435059 19.3333282471 0.666656494141 rrcurveto
          endchar
        </CharString>
        <CharString name="radical">
          28 135 -10 rmoveto
          96 0 132 649 -106 0 -79 -415 -26 140 -101 -56 rlineto
          endchar
        </CharString>
        <CharString name="registered">
          321 133 316 rmoveto
          0 73.3333435059 25.8333282471 62.6666564941 51.6666717529 52 51.6666564941 52 62.5 26 73.3333435059 0 73.3333435059 0 62.6666564941 -26 52 -52 52 -52 26 -62.6666564941 0 -73.3333435059 0 -73.3333282471 -26 -62.6666717529 -52 -52 -52 -52 -62.6666564941 -26 -73.3333435059 0 rrcurveto
          -73.3333435059 0 -62.6666564941 26 -52 52 -52 52 -26 62.6666717529 0 73.3333282471 rrcurveto
          -65 hmoveto
          -90 callsubr
          424 -208 rmoveto
          71 13 rlineto
          -40.6666870117 39.3333282471 -28.3333129883 30 -16 20.6666717529 rrcurveto
          -69 93 rlineto
          64.6666564941 12 32.6666870117 36.3333435059 0.666656494141 60.6666564941 0.666656494141 74.6666564941 -37 37.6666564941 -74.6666564941 0.666687011719 -21.3333435059 0 -43 -0.666687011719 -64.6666564941 -1.33331298828 rrcurveto
          -410 57 185 vlineto
          29 1 rlineto
          24 -39.3333435059 21 -32.6666564941 18 -26 28 -40 25.3333435059 -31.3333282471 22.6666564941 -22.6666717529 rrcurveto
          -112 379 rmoveto
          50 0.666656494141 25 -22.3333129883 0 -45.3333435059 0 -26.6666564941 -5.66665649414 -19.3333435059 -11.3333435059 -12 -14 -13.3333435059 -24 -6.66665649414 -34 0 rrcurveto
          -42 144 hlineto
          endchar
        </CharString>
        <CharString name="ring">
          -170 172 576 rmoveto
          26.6666717529 0 21.8333282471 8.16668701172 17 16.3333129883 17 16.3333129883 8.5 20.8333740234 0 25.3333129883 0 24.6666870117 -8.5 20.5 -17 16.3333129883 -17 16.3333129883 -21.8333282471 8.16668701172 -26.6666717529 0 -26.6666717529 0 -21.8333282471 -8.16668701172 -17 -16.3333129883 -17 -16.3333129883 -8.5 -20.5 0 -24.6666870117 rrcurveto
          0 -25.3333129883 8.5 -20.8333740234 17 -16.3333129883 17 -16.3333129883 21.8333282471 -8.16668701172 26.6666717529 0 rrcurveto
          130 vmoveto
          -82 callsubr
          endchar
        </CharString>
        <CharString name="s">
          -38 46 66 rmoveto
          -95 callsubr
          endchar
        </CharString>
        <CharString name="scaron">
          -38 46 66 rmoveto
          -95 callsubr
          303 584 rmoveto
          -91 callsubr
          endchar
        </CharString>
        <CharString name="section">
          -83 50 -23 rmoveto
          42 -42.6666564941 45.3333282471 -21.3333435059 48.6666717529 0 37.3333282471 0 31 11 24.6666717529 22 28.6666564941 24.6666717529 14 34.6666564941 -0.666656494141 44.6666717529 0 30.6666564941 -8.66665649414 24.3333435059 -17.3333435059 18 17.3333435059 21.3333282471 8.66665649414 28 0 34.6666717529 0 54.6666564941 -32.3333435059 37.6666870117 -64.6666564941 20.6666564941 rrcurveto
          -44 10 -22 8.66665649414 0 7.33334350586 0 10 0.66667175293 7 1.33332824707 4 2.66667175293 9.33334350586 10.3333282471 4.66665649414 18 0 16.6666717529 0 28 -13.3333435059 39.3333282471 -26.6666564941 rrcurveto
          34 81 rlineto
          -44.6666564941 28.6666564941 -38.6666717529 14.6666870117 -32.6666717529 0.666656494141 -32 0.666656494141 -27.6666717529 -9.66665649414 -23.3333282471 -20 -26.6666564941 -23.3333435059 -13.3333435059 -32.3333129883 0 -41.3333435059 0 -30.6666564941 9.66665649414 -24.3333435059 19.3333435059 -18 -19.3333435059 -22.6666717529 -9.66665649414 -28 0 -33.3333282471 0 -47.3333282471 22 -32.0000152588 44 -16.6666564941 rrcurveto
          22 -8 17 -5.33334350586 12 -2.66665649414 17.3333282471 -4.66665649414 9.66667175293 -3.00001525879 2 -1.33332824707 10 -4.66667175293 5 -8 0 -11.3333282471 0 -6.66667175293 -3.83332824707 -7.5 -7.66667175293 -8.33332824707 -7.66667175293 -8.33332824707 -9.5 -4.16667175293 -11.3333282471 0 -30.6666717529 0 -30.6666564941 17.6666717529 -30.6666717529 35.3333282471 rrcurveto
          59 133 rmoveto
          0 24.6666717529 8 13.6666564941 16 2.66667175293 18.6666717529 -5.33332824707 11.3333282471 -3.66667175293 4 -2 10 -5.33332824707 5 -8 0 -10.6666717529 0 -10.6666717529 -6.33332824707 -9.66665649414 -12.6666717529 -8.66667175293 rrcurveto
          -20 6 rlineto
          -22.6666717529 6.66667175293 -11.3333282471 5.66665649414 0 4.66667175293 rrcurveto
          endchar
        </CharString>
        <CharString name="semicolon">
          -221 68 418 rmoveto
          -57.3333435059 23 -28.6666564941 46 44 22 28.6666564941 57.3333435059 57.3333435059 -22 28.6666564941 -44 -46 -23 -28.6666564941 -57.3333435059 vhcurveto
          39 -525 rmoveto
          -107 callsubr
          endchar
        </CharString>
        <CharString name="seven">
          191 -32 rmoveto
          267 575 0 101 -422 0 0 -109 316 0 -271 -537 rlineto
          endchar
        </CharString>
        <CharString name="six">
          137 193 rmoveto
          0 41.3333282471 13.3333282471 33.0000152588 26.6666717529 24.6666564941 24 22.6666564941 30.3333282471 11.3333435059 36.6666717529 0 34 0 27 -11 20 -22 20 -22 10 -31.3333282471 0 -40.6666717529 0 -34 -11.8333435059 -32 -23.6666564941 -30 -23.6666564941 -30 -27.5 -15 -31.3333435059 0 rrcurveto
          -39.3333282471 0 -31 14 -22.6666717529 28 -20.6666717529 24.6666564941 -10.3333282471 31.0000152588 0 37.3333282471 rrcurveto
          -121 77 rmoveto
          0 -100 25.3333282471 -75.6666564941 50.6666717529 -51.3333435059 42.6666717529 -43.3333282471 56.3333282471 -21.6666717529 70 0 66.6666564941 0 54.6666870117 23.6666717529 42.6666564941 47.3333282471 40.6666564941 44.6666564941 20.3333435059 54.6666717529 0 64.6666717529 0 67.3333435059 -20.3333435059 52.6666564941 -40.6666564941 38 -36.6666564941 34 -46.6666870117 17 -56.6666564941 0 rrcurveto
          -22 0 -25 -5.66665649414 -28 -11.3333435059 -39.3333282471 -16.6666564941 -27.3333435059 -23.3333435059 -15.3333282471 -30 4 64.6666564941 13.6666717529 52 23.3333282471 39.3333435059 28 48.6666870117 40 24.3333129883 52 0 50 0 41 -12 32 -24 rrcurveto
          40 83 rlineto
          -61.3333435059 30 -54 15 -46.6666564941 0 -98 0 -72 -39.6666870117 -46 -79.3333129883 -38.6666717529 -66 -19.3333282471 -89 0 -112 rrcurveto
          endchar
        </CharString>
        <CharString name="slash">
          -90 -14 -149 rmoveto
          121 -24 309 856 -120 24 rlineto
          endchar
        </CharString>
        <CharString name="space">
          -202 endchar
        </CharString>
        <CharString name="sterling">
          1 293 26 rmoveto
          14.6666564941 0 19.3333435059 -4.33332824707 24 -8.66667175293 39.3333435059 -14 24.3333129883 -8.33332824707 9.33334350586 -2.66667175293 rrcurveto
          21 110 rlineto
          -51.3333435059 14 -46 7 -40.6666564941 0 -31.3333435059 0 -27.9999847412 -1.66665649414 -24.6666717529 -3.33334350586 20.6666717529 24 10.3333282471 27.3333282471 0 30.6666717529 0 36 -1.33332824707 32.3333435059 -2.66667175293 28.6666564941 rrcurveto
          106 93 -126 hlineto
          -8 41.3333435059 -4 25.6666564941 0 10 0 26.6666564941 7 24.1666564941 14 21.6666870117 14 21.6666870117 17.3333435059 10.8333129883 20.6666564941 0 9.33334350586 0 27.3333129883 -11.3333129883 45.3333435059 -22.6666870117 rrcurveto
          44 81 rlineto
          -46.6666564941 27.3333129883 -43.6666870117 13.6666870117 -40.6666564941 0 -54 0 -42.3333282471 -19 -30.6666717529 -38 -27.3333282471 -34.6666870117 -13.6666717529 -44 0 -53.3333129883 0 -18 3.33334350586 -27 6.66665649414 -36 rrcurveto
          -54 -93 67 hlineto
          6 -34 3 -38 0 -42 0 -31.3333282471 -8.33332824707 -24.0000152588 -16.6666717529 -16.6666564941 -6.66665649414 -6.66665649414 -11 -5.33334350586 -15.3333435059 -4 -11.3333435059 -3.33334350586 -11.6666564941 -3 -12 -2.66665649414 rrcurveto
          15 -100 rlineto
          116 29.3333282471 73.6666564941 14.6666717529 31.3333435059 0 rrcurveto
          endchar
        </CharString>
        <CharString name="summation">
          16 92 91 rmoveto
          -91 356 110 vlineto
          -207 -1 181 240 -173 179 199 0 0 105 -344 0 -13 -97 190 -197 rlineto
          endchar
        </CharString>
        <CharString name="t">
          -124 91 154 rmoveto
          -108 33.3333435059 -54 66.6666564941 vhcurveto
          36 0 26.3333282471 2.33332824707 16.6666717529 4.66667175293 12 4 23 11.3333282471 34 18.6666717529 rrcurveto
          -24 69 rlineto
          -22 -12.6666564941 -11.3333435059 -6.33334350586 -0.666656494141 0 -6.66665649414 -2.66665649414 -13.3333435059 -1.33334350586 -20 0 rrcurveto
          -24.6666717529 -12.3333282471 21.3333435059 42.6666564941 hvcurveto
          0 267 100 -1 0 83 -100 0 0 105 -113 0 0 -105 -70 0 0 -82 70 0 rlineto
          endchar
        </CharString>
        <CharString name="thorn">
          47 203 -4 rmoveto
          18.6666717529 -9.33332824707 23 -4.66667175293 27.3333282471 0 66 0 52.3333435059 21.6666717529 38.6666564941 43.3333282471 43.3333435059 48.6666564941 21.3333129883 72.0000152588 -0.666656494141 95.3333282471 -0.666656494141 68.6666564941 -16.6666870117 57 -32.6666564941 45.3333435059 -37.3333435059 49.3333435059 -51 24.6666564941 -64.6666564941 0 -18.6666564941 0 -20.6666717529 -8.66665649414 -22.6666717529 -17.3333435059 rrcurveto
          -7.33332824707 -5.33334350586 -18.3333435059 -16.6666564941 -29.3333282471 -28 rrcurveto
          253 -113 -880 113 210 vlineto
          3 -2 rlineto
          14 -9.33332824707 9 -5.66667175293 4 -2 rrcurveto
          -30 306 rmoveto
          12.6666717529 26.6666564941 15 24 17.3333282471 21.3333435059 22 26 19.6666564941 13 17.3333435059 0 34.6666564941 0 26 -17 17.3333435059 -34 14.6666564941 -28.6666564941 7.33334350586 -36.3333435059 0 -44 0 -48.6666717529 -8.33334350586 -41 -16.6666564941 -33.3333282471 -18.6666564941 -38 -26.6666870117 -19 -34.6666564941 0 rrcurveto
          -14.6666564941 0 -17.8333435059 4.16665649414 -21 8.33334350586 -21 8.33334350586 -15.1666717529 8.5 -9.33332824707 8.66665649414 rrcurveto
          endchar
        </CharString>
        <CharString name="three">
          105 145 rmoveto
          -51 -76 rlineto
          49.3333435059 -58.6666717529 70.3333282471 -29.3333282471 91.3333282471 0 59.3333435059 0 49.3333129883 22.6666717529 39.3333435059 45.3333282471 34.6666564941 40 17.3333435059 41.6666717529 0 43.3333282471 0 38 -12.3333435059 35.6666717529 -24.6666564941 33.3333282471 -22 30 -28 23.3333435059 -34 16.6666564941 30.6666564941 16.6666564941 22 16.3333435059 13.3333435059 16 rrcurveto
          20.6666564941 24 10.3333435059 29.6666564941 0 35.3333435059 0 50.6666870117 -21 42 -42 33.3333129883 -38 30 -42.6666564941 15 -47.3333435059 0 -58 0 -53.6666717529 -32.3333129883 -49.3333282471 -64.6666870117 rrcurveto
          62 -57 rlineto
          20 24.6666870117 15 16 10 7.33331298828 15.3333282471 12 18.3333435059 6 21.3333282471 0 24.6666564941 0 21.5 -9.16668701172 18.3333435059 -18.3333129883 18.3333435059 -18.3333129883 9.16665649414 -20.8333435059 0 -23.3333435059 0 -29.3333435059 -9.83334350586 -24.6666564941 -19.6666564941 -20 -19.6666564941 -20 -23.8333435059 -10 -28 0 rrcurveto
          -62 -86 62 hlineto
          36 0 28.3333435059 -11.3333435059 20.6666564941 -22.6666564941 18.6666564941 -20 9.33334350586 -25 0 -30 0 -31.3333282471 -8.33334350586 -26.0000152588 -16.6666564941 -20.6666564941 -19.3333435059 -24.6666564941 -28.6666564941 -12.3333435059 -38 0 -42.6666717529 0 -46.3333282471 25.6666564941 -50 51.3333435059 rrcurveto
          endchar
        </CharString>
        <CharString name="tilde">
          -100 190 579 rmoveto
          30 -20 25.3333282471 -10 20.6666717529 0 10 0 14.1666564941 3.66668701172 18.3333435059 7.33331298828 18.3333435059 7.33331298828 14.5 9 10.6666564941 10.6666870117 rrcurveto
          -38 76 rlineto
          -24 -20.6666870117 -16.6666564941 -10.3333129883 -9.33334350586 0 -7.33334350586 0 -16.4999847412 9 -25.6666717529 18 -25.6666717529 18 -22.8333282471 8.66668701172 -20 -0.666687011719 -43.3333435059 -1.33331298828 -35.3333129883 -17.3333740234 -27.3333435059 -33.3333129883 rrcurveto
          40 -78 rlineto
          26.6666564941 31.3333129883 22.0000152588 15.6666870117 17.3333282471 0 6 0 14.6666717529 -7.66668701172 23.3333282471 -15.3333129883 rrcurveto
          endchar
        </CharString>
        <CharString name="trademark">
          166 174 315 rmoveto
          275 89 52 -248 -52 95 -275 vlineto
          445 199 rmoveto
          -199 64 329 -75 vlineto
          -89 -229 -89 229 -78 0 0 -329 60 0 0 201 77 -201 54 0 rlineto
          endchar
        </CharString>
        <CharString name="two">
          84 99 rmoveto
          -99 396 111 -266 vlineto
          107 96 rlineto
          44 41.3333282471 33 38.3333282471 22 35.3333435059 28.6666564941 45.3333435059 14.3333435059 44.6666564941 0 44 0 58.6666870117 -20.1666564941 48.3333129883 -40.3333435059 38 -40.3333435059 38 -51.1666564941 19 -62 0 -72.6666717529 0 -60.3333282471 -43.6666870117 -48 -87.3333129883 rrcurveto
          75 -50 rlineto
          33.3333282471 58.6666870117 36 29.3333129883 38.6666717529 0 29.3333435059 0 22.8333129883 -10.6666870117 16.3333435059 -21.3333129883 16.3333435059 -21.3333435059 8.16665649414 -26 0 -30.6666564941 0 -48.6666564941 -26.6666564941 -53.3333435059 -53.3333435059 -58 rrcurveto
          endchar
        </CharString>
        <CharString name="u">
          36 349 hmoveto
          -94 callsubr
          endchar
        </CharString>
        <CharString name="uacute">
          7 126 626 rmoveto
          -84 callsubr
          8 -715 rmoveto
          -94 callsubr
          endchar
        </CharString>
        <CharString name="ucircumflex">
          7 125 521 rmoveto
          -80 callsubr
          224 -609 rmoveto
          -94 callsubr
          endchar
        </CharString>
        <CharString name="udieresis">
          7 295 628 rmoveto
          -69 callsubr
          -210 hmoveto
          0 -18.6666870117 5.66665649414 -16 11.3333435059 -13.3333129883 12.6666564941 -16 17.6666717529 -8 22.6666717529 0 22 0 17.6666717529 8 13.3333282471 16 11.3333282471 14 5.66667175293 16 0 18 0 17.3333129883 -5.66667175293 15.6666870117 -11.3333282471 14 -13.3333282471 16.6666870117 -17.6666717529 8.33331298828 -22 0 rrcurveto
          -22.6666717529 0 -17.6666717529 -8.33331298828 -12.6666564941 -16.6666870117 -11.3333435059 -14 -5.66665649414 -15.6666870117 0 -17.3333129883 rrcurveto
          264 -628 rmoveto
          -94 callsubr
          endchar
        </CharString>
        <CharString name="ugrave">
          7 355 556 rmoveto
          49 59 -211 96 -46 -65 rlineto
          202 -646 rmoveto
          -94 callsubr
          endchar
        </CharString>
        <CharString name="underscore">
          61 5 -50 rmoveto
          -59 525 59 vlineto
          endchar
        </CharString>
        <CharString name="v">
          -11 196 -12 rmoveto
          76 0 176 486 -105 31 -107 -384 -112 384 -108 -31 rlineto
          endchar
        </CharString>
        <CharString name="w">
          260 479 -9 rmoveto
          85 0 155 484 -107 28 -87 -383 -105 373 -94 0 -101 -374 -93 384 -110 -28 150 -484 87 0 111 316 rlineto
          endchar
        </CharString>
        <CharString name="x">
          13 243 183 rmoveto
          146 -216 93 64 -174 220 159 211 -89 51 -129 -196 -125 197 -100 -60 152 -208 -170 -214 93 -63 rlineto
          endchar
        </CharString>
        <CharString name="y">
          5 114 -196 rmoveto
          -93 callsubr
          endchar
        </CharString>
        <CharString name="yacute">
          5 123 644 rmoveto
          -70 callsubr
          -224 -929 rmoveto
          -93 callsubr
          endchar
        </CharString>
        <CharString name="ydieresis">
          -8 119 -196 rmoveto
          36.6666717529 0 32.6666564941 13 28.6666717529 26 24 21.3333282471 17.6666564941 26.3333282471 11.3333435059 31.3333435059 rrcurveto
          199 554 -100 25 -108 -364 -127 366 -106 -30 180 -425 -29 -87 rlineto
          -16.6666717529 -38.6666564941 -18.3333282471 -19.3333435059 -20 0 -22 0 -23.3333435059 6.66665649414 -24.6666564941 13.3333435059 rrcurveto
          -32 -95 rlineto
          48 -16 32.3333435059 -8 16.6666564941 0 rrcurveto
          154 794 rmoveto
          -79 callsubr
          -209 hmoveto
          0 -18.6666870117 5.33334350586 -16 10.6666564941 -13.3333129883 13.3333435059 -16 18 -8 22.6666564941 0 22 0 17.3333282471 8 12.6666717529 16 11.3333282471 14 5.66667175293 16 0 18 0 17.3333129883 -5.66667175293 15.6666870117 -11.3333282471 14 -13.3333282471 16.6666870117 -17.3333435059 8.33331298828 -21.3333282471 0 rrcurveto
          -22.6666564941 0 -18 -8.33331298828 -13.3333435059 -16.6666870117 -10.6666564941 -13.3333129883 -5.33334350586 -15.6666870117 0 -18 rrcurveto
          endchar
        </CharString>
        <CharString name="yen">
          56 193 287 rmoveto
          -79 -83 82 -49 -82 -83 82 -70 119 70 79 83 -79 49 79 hlineto
          83 -76 vlineto
          171 354 -124 0 -110 -225 -110 225 -124 0 rlineto
          endchar
        </CharString>
        <CharString name="z">
          7 53 77 rmoveto
          -92 callsubr
          endchar
        </CharString>
        <CharString name="zcaron">
          7 58 77 rmoveto
          -92 callsubr
          183 370 rmoveto
          -91 callsubr
          endchar
        </CharString>
        <CharString name="zero">
          58 103 rmoveto
          45.3333435059 -76.6666717529 63.6666564941 -38.3333282471 82 0 76.6666564941 0 62 38.3333282471 47.3333435059 76.6666717529 38 61.3333282471 19 70.6666717529 0 80 0 96 -19.3333435059 79 -38.6666564941 62 -43.3333435059 69.3333129883 -61.6666564941 34.6666870117 -80 0 -80 0 -61.6666564941 -35 -43.3333435059 -70 rrcurveto
          -37.3333282471 -61.3333435059 -18.6666717529 -78.6666564941 0 -96 0 -84.6666717529 16.6666717529 -70.6666564941 33.3333282471 -56.6666717529 rrcurveto
          191 -18 rmoveto
          -47.3333282471 0 -34 28.6666564941 -20.6666717529 57.3333435059 -14.6666717529 38.6666717529 -7.33332824707 47.9999847412 0 57.3333435059 0 69.3333435059 5.33332824707 51.6666564941 10.6666717529 34 18.6666717529 59.3333129883 36 29.6666870117 53.3333282471 0 86 0 43 -81.3333435059 0 -162.666656494 0 -58 -7.66665649414 -48.6666717529 -15.3333435059 -39.3333282471 rrcurveto
          -22 -56 -35.3333435059 -28 -48.6666564941 0 rrcurveto
          endchar
        </CharString>
</ttFont>
